{"glyphs":{"0":{"ha":758,"x_min":25,"x_max":720,"o":"m 25 494 q 92 843 25 720 q 372 1003 178 1003 q 652 844 567 1003 q 720 494 720 718 q 640 138 720 269 q 372 -14 550 -14 q 93 136 176 -14 q 25 494 25 258 m 283 644 l 283 345 q 306 195 283 237 q 372 153 328 153 q 440 194 419 153 q 461 345 461 235 l 461 644 q 440 795 461 754 q 372 836 419 836 q 307 799 326 836 q 283 644 283 754 z "},"1":{"ha":758,"x_min":134,"x_max":664,"o":"m 517 989 l 517 167 l 664 167 l 664 0 l 134 0 l 134 167 l 283 167 l 283 745 l 134 708 l 134 878 q 267 922 179 885 q 375 989 354 960 l 517 989 z "},"2":{"ha":758,"x_min":31,"x_max":717,"o":"m 31 0 l 31 170 q 191 315 110 241 q 376 517 307 427 q 467 705 467 633 q 446 781 467 751 q 380 811 425 811 q 298 765 330 811 q 261 672 278 736 l 47 728 q 175 929 81 856 q 403 1003 269 1003 q 625 935 542 1003 q 717 725 717 860 q 646 518 717 618 q 484 351 591 441 q 309 211 396 281 l 703 208 l 703 0 l 31 0 z "},"3":{"ha":758,"x_min":17,"x_max":717,"o":"m 225 416 l 225 583 l 281 583 q 393 610 355 583 q 439 711 439 642 q 413 795 439 762 q 345 828 387 828 q 264 795 296 828 q 220 708 233 762 l 33 791 q 167 948 78 893 q 370 1003 256 1003 q 591 929 501 1003 q 689 722 689 850 q 624 581 689 639 q 475 511 566 529 q 646 444 586 494 q 717 281 717 385 q 597 58 717 140 q 345 -14 492 -14 q 17 195 115 -14 l 197 283 q 262 185 232 208 q 336 161 293 161 q 426 193 393 161 q 458 281 458 224 q 406 395 458 364 q 286 416 368 416 l 225 416 z "},"4":{"ha":758,"x_min":17,"x_max":728,"o":"m 378 400 l 378 722 l 192 400 l 378 400 m 367 0 l 367 241 l 17 241 l 17 400 l 370 989 l 611 989 l 611 400 l 728 400 l 728 241 l 608 241 l 608 0 l 367 0 z "},"5":{"ha":758,"x_min":31,"x_max":717,"o":"m 64 472 l 103 989 l 675 989 l 659 789 l 281 789 l 269 606 q 337 632 296 623 q 414 642 378 642 q 636 553 555 642 q 717 322 717 464 q 608 84 717 182 q 350 -14 498 -14 q 146 52 231 -14 q 31 231 62 117 l 216 300 q 260 203 237 232 q 350 161 293 161 q 437 211 404 161 q 467 311 467 256 q 439 424 467 379 q 345 475 407 475 q 283 455 309 475 q 239 400 258 436 l 64 472 z "},"6":{"ha":758,"x_min":22,"x_max":725,"o":"m 700 745 l 489 711 q 464 790 481 764 q 395 828 440 828 q 296 721 322 828 q 281 558 281 660 q 373 601 326 586 q 467 616 419 616 q 649 543 572 616 q 725 355 725 469 q 633 89 725 191 q 375 -14 541 -14 q 98 150 192 -14 q 22 481 22 283 q 104 827 22 684 q 395 1003 205 1003 q 601 938 524 1003 q 700 745 679 872 m 278 425 q 279 331 278 353 q 290 263 281 309 q 319 190 298 218 q 375 161 339 161 q 457 215 432 161 q 475 319 475 254 q 454 419 475 386 q 375 458 429 458 q 322 449 347 458 q 278 425 307 443 z "},"7":{"ha":758,"x_min":53,"x_max":694,"o":"m 53 781 l 53 989 l 694 989 l 694 864 q 541 595 589 693 q 439 325 471 453 q 403 0 403 178 l 119 0 q 241 406 149 189 q 439 781 317 579 l 53 781 z "},"8":{"ha":758,"x_min":17,"x_max":730,"o":"m 372 153 q 453 180 418 153 q 489 256 489 208 q 435 355 489 315 q 330 411 408 375 q 288 358 297 372 q 258 258 258 318 q 290 182 258 211 q 372 153 322 153 m 397 852 q 321 827 353 852 q 289 758 289 802 q 335 663 289 701 q 428 603 338 661 q 488 677 473 648 q 503 742 503 707 q 397 852 503 852 m 392 1003 q 603 943 522 1003 q 694 747 694 875 q 649 617 694 675 q 533 533 603 559 q 730 275 730 478 q 611 56 730 135 q 355 -14 507 -14 q 132 52 231 -14 q 17 256 17 127 q 75 404 17 343 q 216 481 129 460 q 98 573 140 513 q 56 714 56 633 q 160 929 56 848 q 392 1003 254 1003 z "},"9":{"ha":758,"x_min":22,"x_max":725,"o":"m 45 248 l 258 281 q 281 200 264 228 q 353 161 304 161 q 437 227 408 161 q 467 433 467 293 q 371 388 414 404 q 281 372 328 372 q 99 447 175 372 q 22 636 22 522 q 115 902 22 802 q 370 1003 207 1003 q 648 839 554 1003 q 725 509 725 707 q 642 163 725 307 q 353 -14 541 -14 q 45 248 92 -14 m 467 567 q 466 638 467 602 q 458 722 465 675 q 429 798 446 774 q 370 828 407 828 q 290 775 314 828 q 272 672 272 734 q 294 567 272 604 q 370 530 315 530 q 424 542 399 530 q 467 567 429 545 z "},"¨":{"ha":694,"x_min":0,"x_max":0,"o":""},"¼":{"ha":1207,"x_min":0,"x_max":0,"o":""},"½":{"ha":1207,"x_min":0,"x_max":0,"o":""},"¾":{"ha":1207,"x_min":0,"x_max":0,"o":""},"÷":{"ha":1157,"x_min":0,"x_max":0,"o":""},"Č":{"ha":864,"x_min":0,"x_max":0,"o":""},"č":{"ha":625,"x_min":0,"x_max":0,"o":""},"•":{"ha":842,"x_min":212,"x_max":629,"o":"m 420 714 q 568 653 507 714 q 629 506 629 592 q 568 358 629 419 q 420 297 507 297 q 273 358 334 297 q 212 506 212 419 q 273 653 212 592 q 420 714 334 714 z "},"˜":{"ha":463,"x_min":-16,"x_max":479,"o":"m 20 747 l -16 747 q 134 882 22 882 q 260 847 181 882 q 357 817 328 817 q 442 887 414 817 l 479 887 q 421 783 460 819 q 332 747 382 747 q 214 778 286 747 q 102 812 134 812 q 20 747 47 812 z "},"°":{"ha":555,"x_min":61,"x_max":496,"o":"m 496 755 q 432 601 496 664 q 278 538 369 538 q 124 601 187 538 q 61 758 61 664 q 125 910 61 847 q 279 974 190 974 q 432 910 369 974 q 496 755 496 847 m 415 754 q 376 853 415 813 q 280 893 337 893 q 182 853 222 893 q 142 755 142 812 q 182 659 142 700 q 279 618 223 618 q 375 658 336 618 q 415 754 415 699 z "},"±":{"ha":762,"x_min":40,"x_max":723,"o":"m 40 450 l 40 545 l 334 545 l 334 839 l 429 839 l 429 545 l 723 545 l 723 450 l 429 450 l 429 156 l 334 156 l 334 450 l 40 450 m 40 0 l 40 94 l 723 94 l 723 0 l 40 0 z "}," ":{"ha":403,"x_min":0,"x_max":0,"o":""},"!":{"ha":511,"x_min":117,"x_max":375,"o":"m 180 345 l 117 989 l 375 989 l 330 345 l 180 345 m 131 0 l 131 241 l 372 241 l 372 0 l 131 0 z "},"\"":{"ha":728,"x_min":109,"x_max":614,"o":"m 431 525 l 431 989 l 614 989 l 614 525 l 431 525 m 109 525 l 109 989 l 292 989 l 292 525 l 109 525 z "},"#":{"ha":742,"x_min":33,"x_max":714,"o":"m 672 414 l 672 281 l 553 281 l 517 0 l 378 0 l 414 281 l 289 281 l 250 0 l 111 0 l 150 281 l 33 281 l 33 414 l 170 414 l 192 578 l 75 578 l 75 711 l 208 711 l 248 989 l 386 989 l 347 711 l 475 711 l 511 989 l 650 989 l 614 711 l 714 711 l 714 578 l 595 578 l 572 414 l 672 414 m 330 578 l 309 414 l 433 414 l 456 578 l 330 578 z "},"$":{"ha":742,"x_min":-11,"x_max":711,"o":"m 342 1008 l 342 1128 l 416 1128 l 416 1003 q 585 932 514 989 q 686 791 656 875 l 486 708 q 436 785 464 758 q 350 817 401 817 q 290 796 315 817 q 264 733 264 775 q 379 632 264 679 q 595 530 551 559 q 711 317 711 449 q 629 96 711 184 q 416 -14 546 8 l 416 -147 l 342 -147 l 342 -20 q 126 46 220 -20 q -11 231 32 113 l 197 314 q 260 212 228 243 q 367 172 301 172 q 440 196 411 172 q 469 256 469 220 q 355 383 469 335 q 144 481 167 464 q 31 728 31 564 q 123 924 31 839 q 342 1008 216 1008 z "},"%":{"ha":958,"x_min":39,"x_max":914,"o":"m 733 86 q 766 123 760 86 q 772 244 772 160 q 771 338 772 319 q 733 403 765 403 q 701 367 707 403 q 694 244 694 330 q 700 119 694 153 q 733 86 705 86 m 733 -14 q 587 69 632 -14 q 553 244 553 135 q 586 419 553 357 q 733 503 631 503 q 879 419 833 503 q 914 244 914 355 q 879 69 914 134 q 733 -14 835 -14 m 220 586 q 252 623 245 586 q 258 745 258 660 q 257 838 258 819 q 220 903 252 903 q 187 867 193 903 q 180 745 180 831 q 186 620 180 653 q 220 586 192 586 m 220 486 q 74 570 119 486 q 39 745 39 633 q 74 920 39 856 q 220 1003 118 1003 q 366 920 321 1003 q 400 745 400 854 q 367 570 400 632 q 220 486 322 486 m 828 1022 l 244 -33 l 117 -33 l 700 1022 l 828 1022 z "},"&":{"ha":884,"x_min":8,"x_max":867,"o":"m 867 197 l 867 -20 q 713 7 794 -20 q 575 86 618 37 q 446 9 518 37 q 300 -20 374 -20 q 100 54 186 -20 q 8 244 8 132 q 75 421 8 343 q 225 530 129 484 q 168 639 189 589 q 142 755 142 703 q 222 939 142 869 q 422 1008 302 1008 q 603 957 529 1008 q 689 789 689 897 q 652 673 689 730 q 494 530 603 600 l 606 389 q 654 484 627 408 q 672 542 667 518 l 852 500 q 809 379 848 460 q 725 244 770 298 q 787 210 746 225 q 859 195 828 195 l 867 197 m 447 214 l 314 392 q 274 336 289 367 q 258 272 258 306 q 286 210 258 239 q 350 180 314 180 q 406 188 378 180 q 447 214 433 196 m 422 859 q 376 838 395 859 q 358 786 358 817 q 379 717 358 757 q 416 653 387 700 q 463 714 439 684 q 489 786 489 753 q 470 838 489 818 q 422 859 452 859 z "},"'":{"ha":372,"x_min":94,"x_max":278,"o":"m 94 525 l 94 989 l 278 989 l 278 525 l 94 525 z "},"(":{"ha":481,"x_min":106,"x_max":406,"o":"m 406 -127 l 195 -127 q 127 152 149 17 q 106 431 106 286 q 131 706 106 568 q 203 989 155 844 l 406 989 q 332 700 358 850 q 306 403 306 550 q 328 124 306 252 q 406 -127 350 -4 z "},")":{"ha":481,"x_min":58,"x_max":358,"o":"m 58 989 l 269 989 q 337 712 315 846 q 358 431 358 578 q 333 157 358 294 q 261 -127 309 20 l 58 -127 q 133 163 107 14 q 158 458 158 313 q 136 738 158 608 q 58 989 114 868 z "},"*":{"ha":542,"x_min":31,"x_max":514,"o":"m 458 608 l 342 533 l 278 703 l 264 703 l 192 539 l 78 614 l 216 733 l 211 750 l 31 770 l 72 900 l 225 803 l 244 814 l 205 989 l 339 989 l 297 814 l 314 800 l 475 895 l 514 761 l 330 750 l 322 733 l 458 608 z "},"+":{"ha":836,"x_min":66,"x_max":770,"o":"m 334 436 l 334 703 l 500 703 l 500 436 l 770 436 l 770 269 l 500 269 l 500 0 l 334 0 l 334 269 l 66 269 l 66 436 l 334 436 z "},",":{"ha":372,"x_min":41,"x_max":309,"o":"m 66 0 l 66 241 l 309 241 l 309 31 l 170 -225 l 41 -225 l 153 0 l 66 0 z "},"-":{"ha":403,"x_min":39,"x_max":372,"o":"m 39 264 l 39 456 l 372 456 l 372 264 l 39 264 z "},".":{"ha":372,"x_min":66,"x_max":309,"o":"m 66 0 l 66 241 l 309 241 l 309 0 l 66 0 z "},"/":{"ha":636,"x_min":-81,"x_max":519,"o":"m -81 -20 l 353 1008 l 519 1008 l 86 -20 l -81 -20 z "},":":{"ha":372,"x_min":66,"x_max":309,"o":"m 66 456 l 66 697 l 309 697 l 309 456 l 66 456 m 66 0 l 66 241 l 309 241 l 309 0 l 66 0 z "},";":{"ha":372,"x_min":41,"x_max":309,"o":"m 66 0 l 66 241 l 309 241 l 309 31 l 170 -225 l 41 -225 l 153 0 l 66 0 m 66 456 l 66 697 l 309 697 l 309 456 l 66 456 z "},"<":{"ha":836,"x_min":66,"x_max":770,"o":"m 770 150 l 770 -11 l 66 286 l 66 416 l 770 714 l 770 555 l 281 353 l 770 150 z "},"=":{"ha":836,"x_min":66,"x_max":770,"o":"m 770 591 l 770 425 l 66 425 l 66 591 l 770 591 m 770 281 l 770 114 l 66 114 l 66 281 l 770 281 z "},">":{"ha":836,"x_min":66,"x_max":770,"o":"m 66 150 l 553 353 l 66 555 l 66 714 l 770 416 l 770 286 l 66 -11 l 66 150 z "},"?":{"ha":619,"x_min":11,"x_max":606,"o":"m 205 345 l 205 408 q 293 620 205 515 q 380 770 380 724 q 359 826 380 807 q 300 844 338 844 q 228 796 253 844 q 208 697 208 757 l 11 730 q 98 931 11 860 q 319 1003 184 1003 q 514 950 435 1003 q 606 781 606 889 q 575 669 606 720 q 508 588 558 642 q 437 501 457 534 q 406 383 406 447 l 406 345 l 205 345 m 186 0 l 186 241 l 428 241 l 428 0 l 186 0 z "},"@":{"ha":1114,"x_min":41,"x_max":1069,"o":"m 539 372 q 627 409 593 372 q 661 497 661 446 q 636 570 661 542 q 567 597 611 597 q 484 559 518 597 q 450 472 450 521 q 474 401 450 429 q 539 372 498 372 m 822 720 l 781 489 q 769 425 775 453 q 764 392 764 397 q 781 367 764 367 q 871 408 831 367 q 920 547 920 460 q 827 791 920 708 q 572 875 734 875 q 301 764 411 875 q 192 494 192 653 q 303 225 192 336 q 583 114 414 114 q 736 126 675 114 q 895 195 831 146 l 1014 167 q 815 18 940 64 q 583 -20 714 -20 q 196 130 351 -20 q 41 494 41 279 q 195 858 41 707 q 572 1008 349 1008 q 914 901 774 1008 q 1069 586 1069 782 q 950 311 1069 401 q 714 239 854 239 q 625 302 625 239 q 569 257 604 275 q 489 239 534 239 q 366 297 418 239 q 309 456 309 359 q 376 649 309 567 q 550 730 443 730 q 697 659 644 730 l 708 720 l 822 720 z "},"A":{"ha":775,"x_min":-14,"x_max":758,"o":"m -14 0 l 220 989 l 547 989 l 758 0 l 505 0 l 467 200 l 239 200 l 195 0 l -14 0 m 272 375 l 433 375 l 361 778 l 272 375 z "},"B":{"ha":850,"x_min":64,"x_max":789,"o":"m 64 0 l 64 989 l 481 989 q 693 924 614 989 q 772 753 772 859 q 720 601 772 664 q 586 519 667 538 q 736 432 684 494 q 789 272 789 370 q 701 74 789 147 q 467 0 614 0 l 64 0 m 314 431 l 314 183 l 406 183 q 489 208 457 183 q 530 309 530 240 q 498 398 530 366 q 406 431 465 431 l 314 431 m 314 814 l 314 597 l 397 597 q 491 628 460 597 q 522 705 522 659 q 484 794 522 768 q 403 814 454 814 l 314 814 z "},"C":{"ha":775,"x_min":14,"x_max":745,"o":"m 745 644 l 511 644 q 492 760 511 713 q 406 825 464 825 q 306 729 334 825 q 283 494 283 653 q 302 253 283 317 q 411 164 329 164 q 504 216 476 164 q 528 364 528 262 l 745 345 q 653 80 745 179 q 400 -20 561 -20 q 93 142 192 -20 q 14 494 14 272 q 92 840 14 708 q 400 1008 192 1008 q 661 903 571 1008 q 745 644 745 806 z "},"D":{"ha":850,"x_min":64,"x_max":786,"o":"m 64 0 l 64 989 l 336 989 q 675 859 558 989 q 786 511 786 733 q 690 150 786 282 q 367 0 582 0 l 64 0 m 314 814 l 314 175 l 342 175 q 494 297 456 175 q 517 519 517 368 q 489 708 517 642 q 336 814 446 814 l 314 814 z "},"E":{"ha":775,"x_min":64,"x_max":686,"o":"m 64 0 l 64 989 l 686 989 l 686 798 l 314 798 l 314 597 l 564 597 l 564 406 l 314 406 l 314 200 l 686 200 l 686 0 l 64 0 z "},"F":{"ha":728,"x_min":64,"x_max":661,"o":"m 64 0 l 64 989 l 661 989 l 661 798 l 314 798 l 314 597 l 561 597 l 561 406 l 314 406 l 314 0 l 64 0 z "},"G":{"ha":775,"x_min":14,"x_max":755,"o":"m 747 492 l 747 -17 l 644 -17 l 595 78 q 496 6 554 32 q 378 -20 437 -20 q 98 117 192 -20 q 14 469 14 241 q 92 838 14 701 q 400 1008 189 1008 q 669 905 578 1008 q 755 636 755 808 l 514 636 q 494 774 514 733 q 406 825 469 825 q 306 729 334 825 q 283 494 283 653 q 302 253 283 317 q 411 164 329 164 q 501 221 468 164 q 530 325 530 269 l 406 325 l 406 492 l 747 492 z "},"H":{"ha":850,"x_min":64,"x_max":761,"o":"m 64 0 l 64 989 l 314 989 l 314 606 l 511 606 l 511 989 l 761 989 l 761 0 l 511 0 l 511 406 l 314 406 l 314 0 l 64 0 z "},"I":{"ha":389,"x_min":69,"x_max":319,"o":"m 69 0 l 69 989 l 319 989 l 319 0 l 69 0 z "},"J":{"ha":464,"x_min":-3,"x_max":400,"o":"m 400 989 l 400 200 q 321 26 400 81 q 125 -20 254 -20 q 74 -18 90 -20 q -3 -8 57 -17 l -3 180 q 50 172 26 172 q 135 207 114 172 q 150 302 150 233 l 150 989 l 400 989 z "},"K":{"ha":850,"x_min":64,"x_max":806,"o":"m 64 0 l 64 989 l 314 989 l 314 564 l 558 989 l 806 989 l 586 664 l 800 0 l 555 0 l 419 428 l 314 272 l 314 0 l 64 0 z "},"L":{"ha":728,"x_min":64,"x_max":653,"o":"m 64 0 l 64 989 l 314 989 l 314 175 l 653 175 l 653 0 l 64 0 z "},"M":{"ha":1053,"x_min":64,"x_max":991,"o":"m 64 0 l 64 989 l 414 989 l 522 436 l 650 989 l 991 989 l 991 0 l 742 0 l 742 730 l 567 0 l 416 0 l 258 755 l 256 0 l 64 0 z "},"N":{"ha":819,"x_min":64,"x_max":761,"o":"m 64 0 l 64 989 l 272 989 l 558 458 l 561 989 l 761 989 l 761 0 l 561 0 l 267 553 l 264 0 l 64 0 z "},"O":{"ha":806,"x_min":14,"x_max":783,"o":"m 14 494 q 96 846 14 713 q 400 1008 196 1008 q 701 847 603 1008 q 783 494 783 713 q 703 143 783 275 q 400 -20 604 -20 q 97 142 197 -20 q 14 494 14 277 m 283 494 q 297 257 283 313 q 400 164 321 164 q 500 256 478 164 q 514 494 514 313 q 500 732 514 675 q 400 825 478 825 q 298 733 322 825 q 283 494 283 672 z "},"P":{"ha":775,"x_min":64,"x_max":772,"o":"m 314 814 l 314 572 l 358 572 q 463 597 422 572 q 514 692 514 629 q 464 787 514 755 q 358 814 422 814 l 314 814 m 64 0 l 64 989 l 436 989 q 673 922 585 989 q 772 708 772 848 q 667 468 772 547 q 411 397 572 397 q 356 400 395 397 q 314 403 318 403 l 314 0 l 64 0 z "},"Q":{"ha":806,"x_min":14,"x_max":783,"o":"m 766 -8 l 766 -208 q 578 -168 646 -208 q 472 -14 498 -121 q 438 -18 454 -16 q 400 -20 422 -20 q 97 142 197 -20 q 14 494 14 277 q 96 846 14 713 q 400 1008 196 1008 q 701 847 603 1008 q 783 494 783 713 q 747 253 783 361 q 625 61 707 131 q 675 6 648 20 q 766 -8 703 -8 m 283 494 q 297 257 283 313 q 400 164 321 164 q 500 256 478 164 q 514 494 514 313 q 500 732 514 675 q 400 825 478 825 q 298 733 322 825 q 283 494 283 672 z "},"R":{"ha":836,"x_min":64,"x_max":770,"o":"m 64 0 l 64 989 l 436 989 q 673 922 586 989 q 770 708 770 848 q 724 570 770 631 q 603 481 679 509 l 770 0 l 522 0 l 397 428 l 314 428 l 314 0 l 64 0 m 314 806 l 314 586 l 364 586 q 478 612 437 586 q 519 694 519 639 q 469 789 519 764 q 355 806 436 806 l 314 806 z "},"S":{"ha":742,"x_min":-11,"x_max":711,"o":"m -11 231 l 197 314 q 260 212 228 243 q 367 172 301 172 q 440 196 411 172 q 469 256 469 220 q 355 383 469 335 q 144 481 167 464 q 31 728 31 564 q 127 924 31 839 q 350 1008 224 1008 q 561 947 471 1008 q 686 791 652 886 l 486 708 q 436 785 464 758 q 350 817 401 817 q 290 796 315 817 q 264 733 264 775 q 379 632 264 679 q 595 530 551 559 q 711 317 711 449 q 606 74 711 168 q 350 -20 501 -20 q 128 45 224 -20 q -11 231 32 110 z "},"T":{"ha":742,"x_min":-14,"x_max":684,"o":"m -14 798 l -14 989 l 684 989 l 684 798 l 461 798 l 461 0 l 211 0 l 211 798 l -14 798 z "},"U":{"ha":806,"x_min":64,"x_max":733,"o":"m 733 989 l 733 314 q 646 64 733 147 q 392 -20 558 -20 q 145 66 227 -20 q 64 314 64 151 l 64 989 l 314 989 l 314 302 q 336 205 314 239 q 422 164 364 164 q 505 211 481 164 q 525 317 525 249 l 525 989 l 733 989 z "},"V":{"ha":758,"x_min":-14,"x_max":733,"o":"m 208 0 l -14 989 l 239 989 l 355 300 l 525 989 l 733 989 l 464 0 l 208 0 z "},"W":{"ha":1114,"x_min":3,"x_max":1105,"o":"m 208 0 l 3 989 l 241 989 l 339 375 l 464 989 l 686 989 l 800 375 l 914 989 l 1105 989 l 889 0 l 675 0 l 558 659 l 422 0 l 208 0 z "},"X":{"ha":775,"x_min":-14,"x_max":758,"o":"m 258 492 l 17 989 l 289 989 l 395 730 l 525 989 l 750 989 l 500 539 l 758 0 l 489 0 l 358 297 l 216 0 l -14 0 l 258 492 z "},"Y":{"ha":775,"x_min":-14,"x_max":758,"o":"m 236 0 l 236 386 l -14 989 l 250 989 l 380 600 l 536 989 l 758 989 l 486 400 l 486 0 l 236 0 z "},"Z":{"ha":711,"x_min":0,"x_max":669,"o":"m 664 183 l 664 0 l 0 0 l 0 125 l 364 806 l 45 806 l 45 989 l 669 989 l 669 864 l 306 183 l 664 183 z "},"[":{"ha":511,"x_min":100,"x_max":411,"o":"m 100 -127 l 100 989 l 411 989 l 411 856 l 283 856 l 283 5 l 411 5 l 411 -127 l 100 -127 z "},"\\":{"ha":636,"x_min":-81,"x_max":519,"o":"m 86 1008 l 519 -20 l 353 -20 l -81 1008 l 86 1008 z "},"]":{"ha":511,"x_min":53,"x_max":364,"o":"m 364 989 l 364 -127 l 53 -127 l 53 5 l 180 5 l 180 856 l 53 856 l 53 989 l 364 989 z "},"^":{"ha":836,"x_min":103,"x_max":733,"o":"m 103 484 l 345 989 l 492 989 l 733 484 l 570 484 l 416 822 l 264 484 l 103 484 z "},"_":{"ha":697,"x_min":0,"x_max":694,"o":"m 694 -175 l 0 -175 l 0 -106 l 694 -106 l 694 -175 z "},"`":{"ha":481,"x_min":-61,"x_max":283,"o":"m -61 972 l 153 972 l 283 772 l 144 772 l -61 972 z "},"a":{"ha":661,"x_min":22,"x_max":631,"o":"m 383 444 l 383 492 q 369 549 383 526 q 325 572 355 572 q 272 543 290 572 q 253 481 253 514 l 56 522 q 155 669 74 618 q 334 714 228 714 q 522 667 449 714 q 608 503 608 611 l 608 114 q 614 37 608 58 q 631 0 619 16 l 397 0 l 392 64 q 316 4 358 25 q 222 -17 273 -17 q 76 39 129 -17 q 22 197 22 96 q 146 392 22 325 q 383 444 244 444 m 383 178 l 383 336 q 283 309 310 329 q 248 208 248 281 q 311 134 248 134 q 383 178 343 134 z "},"b":{"ha":742,"x_min":72,"x_max":675,"o":"m 297 550 l 297 225 l 294 211 q 317 155 294 176 q 370 134 340 134 q 428 177 414 134 q 441 325 441 220 l 441 378 q 439 505 441 481 q 372 589 429 589 q 335 579 354 589 q 309 561 323 574 l 297 550 m 72 0 l 72 989 l 297 989 l 297 659 q 361 699 322 684 q 436 714 400 714 q 614 611 549 714 q 675 358 675 514 q 618 115 675 216 q 419 -8 549 -8 q 311 20 355 -8 q 231 100 267 47 l 189 0 l 72 0 z "},"c":{"ha":650,"x_min":22,"x_max":614,"o":"m 614 439 l 422 439 q 420 488 422 467 q 410 528 418 509 q 388 560 403 547 q 347 572 372 572 q 280 517 296 572 q 264 342 264 461 q 283 180 264 227 q 347 134 302 134 q 419 179 399 134 q 433 267 433 211 l 608 241 q 330 -17 583 -17 q 100 93 186 -17 q 22 334 22 192 q 102 596 22 489 q 339 714 189 714 q 566 603 493 714 q 614 439 614 528 z "},"d":{"ha":650,"x_min":22,"x_max":625,"o":"m 625 989 l 625 0 l 411 0 l 411 69 q 325 8 361 24 q 239 -8 289 -8 q 75 90 134 -8 q 22 322 22 179 q 71 585 22 490 q 253 697 129 697 q 400 636 339 697 l 400 989 l 625 989 m 400 178 l 400 542 q 370 563 389 554 q 328 572 351 572 q 264 505 282 572 q 253 378 253 464 l 256 361 q 258 224 256 254 q 317 125 268 125 q 364 139 342 125 q 400 178 386 153 z "},"e":{"ha":650,"x_min":22,"x_max":623,"o":"m 623 300 l 248 300 q 264 195 248 235 q 347 134 289 134 q 419 160 389 134 q 461 231 450 186 l 614 175 q 510 37 586 90 q 334 -17 433 -17 q 97 94 182 -17 q 22 350 22 193 q 98 606 22 507 q 330 714 182 714 q 557 599 481 714 q 623 347 623 500 l 623 300 m 248 433 l 414 433 q 401 526 414 496 q 330 572 382 572 q 268 531 288 572 q 248 433 248 490 z "},"f":{"ha":464,"x_min":-14,"x_max":425,"o":"m 78 0 l 78 539 l -14 539 l -14 697 l 78 697 l 78 775 q 137 954 78 899 q 311 1008 196 1008 q 425 1000 371 1008 l 425 828 q 383 833 403 833 q 302 775 302 833 l 302 697 l 425 697 l 425 539 l 302 539 l 302 0 l 78 0 z "},"g":{"ha":728,"x_min":-8,"x_max":689,"o":"m 689 755 l 689 578 q 664 597 673 591 q 608 614 637 614 q 572 600 582 614 q 598 550 590 578 q 606 486 606 522 q 514 332 606 390 q 330 281 433 281 q 280 283 296 281 q 233 292 265 285 q 221 273 227 282 q 211 250 211 258 q 271 203 211 210 q 350 200 294 200 q 557 171 488 200 q 664 8 664 126 q 570 -153 664 -97 q 317 -208 476 -208 q 77 -170 161 -208 q -8 -64 -8 -132 q 33 21 -8 -12 q 125 58 68 49 q 56 100 77 78 q 28 175 28 129 q 74 262 28 224 q 164 309 113 296 q 66 387 98 339 q 33 494 33 435 q 132 664 33 603 q 317 714 212 714 q 422 702 371 714 q 511 664 473 690 q 582 724 524 693 q 689 755 640 755 m 317 33 q 205 18 241 33 q 170 -31 170 3 q 250 -87 170 -75 q 317 -92 278 -92 q 414 -85 385 -92 q 472 -31 472 -71 q 434 17 472 1 q 317 33 396 33 m 317 614 q 259 577 277 614 q 241 492 241 541 q 259 414 241 447 q 317 380 277 380 q 380 419 359 380 q 397 500 397 450 q 378 581 397 547 q 317 614 358 614 z "},"h":{"ha":697,"x_min":61,"x_max":636,"o":"m 61 0 l 61 989 l 286 989 l 286 606 q 486 714 364 714 q 596 672 555 714 q 636 558 636 631 l 636 0 l 411 0 l 411 494 q 399 540 411 525 q 355 555 387 555 q 297 528 321 555 l 286 511 l 286 0 l 61 0 z "},"i":{"ha":342,"x_min":56,"x_max":281,"o":"m 56 0 l 56 697 l 281 697 l 281 0 l 56 0 m 56 789 l 56 989 l 281 989 l 281 789 l 56 789 z "},"j":{"ha":342,"x_min":-28,"x_max":281,"o":"m 56 45 l 56 697 l 281 697 l 281 28 q 207 -149 281 -90 q -28 -208 132 -208 l -28 -31 q -17 -33 -26 -32 q 0 -33 -8 -33 q 44 -16 32 -33 q 56 45 56 1 m 56 789 l 56 989 l 281 989 l 281 789 l 56 789 z "},"k":{"ha":742,"x_min":61,"x_max":677,"o":"m 61 0 l 61 989 l 286 989 l 286 481 l 464 697 l 669 697 l 494 497 l 677 0 l 444 0 l 342 322 l 286 258 l 286 0 l 61 0 z "},"l":{"ha":342,"x_min":56,"x_max":281,"o":"m 56 0 l 56 989 l 281 989 l 281 0 l 56 0 z "},"m":{"ha":1022,"x_min":53,"x_max":978,"o":"m 53 0 l 53 697 l 278 697 l 278 606 q 478 714 355 714 q 576 684 533 714 q 619 606 619 654 q 819 714 697 714 q 935 676 892 714 q 978 567 978 639 l 978 0 l 753 0 l 753 494 q 741 540 753 525 q 697 555 729 555 q 639 528 663 555 l 628 511 l 628 0 l 403 0 l 403 494 q 391 540 403 525 q 347 555 379 555 q 289 528 313 555 l 278 511 l 278 0 l 53 0 z "},"n":{"ha":697,"x_min":61,"x_max":636,"o":"m 61 0 l 61 697 l 286 697 l 286 606 q 486 714 364 714 q 596 672 555 714 q 636 558 636 631 l 636 0 l 411 0 l 411 494 q 399 540 411 525 q 355 555 387 555 q 297 528 321 555 l 286 511 l 286 0 l 61 0 z "},"o":{"ha":681,"x_min":22,"x_max":650,"o":"m 22 353 q 100 611 22 515 q 336 714 183 714 q 571 612 488 714 q 650 353 650 515 q 574 87 650 184 q 336 -17 492 -17 q 98 86 180 -17 q 22 353 22 182 m 256 353 q 274 174 256 224 q 336 125 293 125 q 398 174 379 125 q 416 353 416 224 q 400 525 416 478 q 336 572 385 572 q 272 524 289 572 q 256 353 256 476 z "},"p":{"ha":742,"x_min":72,"x_max":675,"o":"m 297 525 l 297 153 q 331 131 313 138 q 367 125 349 125 q 431 183 415 125 q 441 336 441 225 q 378 581 441 581 q 328 564 351 581 q 297 525 304 547 m 72 -208 l 72 697 l 289 697 l 289 625 q 450 705 357 705 q 614 618 554 705 q 675 375 675 532 q 627 121 675 216 q 436 0 566 0 q 297 61 358 0 l 297 -208 l 72 -208 z "},"q":{"ha":650,"x_min":22,"x_max":625,"o":"m 400 153 l 400 478 q 384 547 400 522 q 330 572 367 572 q 270 517 283 572 q 256 330 256 461 q 275 155 256 204 q 328 117 290 117 q 360 124 343 117 q 400 153 378 131 m 625 697 l 625 -208 l 400 -208 l 400 58 l 397 56 q 333 6 367 21 q 256 -8 300 -8 q 77 94 138 -8 q 22 334 22 184 q 82 578 22 471 q 278 705 154 705 q 393 681 347 705 q 478 606 439 656 l 509 697 l 625 697 z "},"r":{"ha":558,"x_min":61,"x_max":500,"o":"m 61 0 l 61 697 l 281 697 l 281 591 q 363 684 301 654 q 500 714 425 714 l 500 486 q 467 497 479 494 q 408 505 437 505 q 332 493 357 505 q 286 453 307 481 l 286 0 l 61 0 z "},"s":{"ha":619,"x_min":11,"x_max":583,"o":"m 570 525 l 414 484 q 374 543 392 524 q 309 572 346 572 q 258 560 275 572 q 241 528 241 547 q 329 452 241 486 q 494 380 471 396 q 583 222 583 322 q 506 48 583 113 q 302 -17 429 -17 q 115 37 191 -17 q 11 180 39 90 l 183 236 q 228 165 207 187 q 302 134 258 134 q 355 148 335 134 q 375 186 375 163 q 288 264 375 231 q 122 335 151 317 q 33 497 33 393 q 93 633 33 571 q 302 714 170 714 q 464 671 396 714 q 570 525 542 623 z "},"t":{"ha":464,"x_min":-14,"x_max":428,"o":"m 78 161 l 78 539 l -14 539 l -14 697 l 78 697 l 78 947 l 302 947 l 302 697 l 428 697 l 428 539 l 302 539 l 302 244 q 311 183 302 197 q 375 158 326 158 q 428 167 403 158 l 428 3 q 355 -12 396 -7 q 269 -17 314 -17 q 128 26 178 -17 q 78 161 78 69 z "},"u":{"ha":697,"x_min":61,"x_max":636,"o":"m 636 697 l 636 0 l 411 0 l 411 94 q 321 12 374 40 q 208 -17 269 -17 q 101 25 140 -17 q 61 142 61 68 l 61 697 l 286 697 l 286 205 q 297 158 286 174 q 339 142 309 142 q 397 172 375 142 l 411 189 l 411 697 l 636 697 z "},"v":{"ha":603,"x_min":-11,"x_max":578,"o":"m 186 0 l -11 697 l 222 697 l 302 319 l 400 697 l 578 697 l 355 0 l 186 0 z "},"w":{"ha":884,"x_min":-8,"x_max":859,"o":"m 150 0 l -8 697 l 214 697 l 278 339 l 358 697 l 547 697 l 611 339 l 697 697 l 859 697 l 677 0 l 500 0 l 422 389 l 325 0 l 150 0 z "},"x":{"ha":650,"x_min":-11,"x_max":628,"o":"m 419 378 l 628 0 l 380 0 l 286 197 l 192 0 l -11 0 l 203 334 l -5 697 l 248 697 l 334 509 l 428 697 l 625 697 l 419 378 z "},"y":{"ha":603,"x_min":-11,"x_max":578,"o":"m -11 697 l 222 697 l 302 294 l 403 697 l 578 697 l 345 -22 q 236 -170 311 -125 q 61 -208 171 -208 q 24 -206 45 -208 q -8 -203 4 -204 l -8 -45 q 21 -48 7 -46 q 53 -50 36 -50 q 143 -33 113 -50 q 180 33 180 -12 q 178 65 180 53 q 170 97 176 77 l -11 697 z "},"z":{"ha":589,"x_min":5,"x_max":536,"o":"m 5 0 l 5 117 l 283 547 l 45 547 l 45 697 l 536 697 l 536 564 l 281 150 l 536 150 l 536 0 l 5 0 z "},"{":{"ha":464,"x_min":3,"x_max":461,"o":"m 3 364 l 3 497 q 98 520 62 497 q 134 583 134 543 l 134 798 q 203 943 134 888 q 322 989 260 989 l 461 989 l 461 864 l 389 864 q 321 833 340 864 q 309 775 309 812 l 309 567 q 252 461 309 497 q 153 433 207 433 l 153 428 q 250 403 210 428 q 309 294 309 367 l 309 89 q 329 17 309 37 q 389 -3 349 -3 l 461 -3 l 461 -127 l 322 -127 q 204 -82 261 -127 q 134 64 134 -25 l 134 281 q 79 350 134 329 q 3 364 45 364 z "},"|":{"ha":311,"x_min":72,"x_max":239,"o":"m 72 -20 l 72 1008 l 239 1008 l 239 -20 l 72 -20 z "},"}":{"ha":464,"x_min":3,"x_max":461,"o":"m 461 497 l 461 364 q 365 342 400 364 q 330 281 330 319 l 330 64 q 261 -82 330 -26 q 142 -127 204 -127 l 3 -127 l 3 -3 l 75 -3 q 143 28 125 -3 q 155 89 155 49 l 155 294 q 212 401 155 367 q 311 428 256 428 l 311 433 q 214 460 256 433 q 155 567 155 496 l 155 775 q 144 832 155 814 q 75 864 125 864 l 3 864 l 3 989 l 142 989 q 260 943 203 989 q 330 798 330 886 l 330 583 q 366 521 330 545 q 461 497 401 497 z "},"~":{"ha":836,"x_min":97,"x_max":739,"o":"m 689 481 l 739 347 q 668 265 697 289 q 564 228 623 228 q 488 243 526 228 q 415 279 467 252 q 331 316 364 307 q 264 325 298 325 q 192 293 222 325 q 147 222 168 268 l 97 355 q 160 437 125 410 q 269 475 205 475 q 429 426 325 475 q 567 378 533 378 q 636 411 603 378 q 689 481 648 425 z "},"…":{"ha":989,"x_min":66,"x_max":920,"o":"m 66 0 l 66 241 l 309 241 l 309 0 l 66 0 m 372 0 l 372 241 l 614 241 l 614 0 l 372 0 m 677 0 l 677 241 l 920 241 l 920 0 l 677 0 z "},"‘":{"ha":403,"x_min":66,"x_max":330,"o":"m 309 766 l 309 525 l 66 525 l 66 736 l 205 989 l 330 989 l 222 766 l 309 766 z "},"’":{"ha":403,"x_min":41,"x_max":309,"o":"m 66 747 l 66 989 l 309 989 l 309 778 l 170 525 l 41 525 l 153 747 l 66 747 z "},"“":{"ha":742,"x_min":66,"x_max":681,"o":"m 656 766 l 656 525 l 414 525 l 414 736 l 553 989 l 681 989 l 570 766 l 656 766 m 309 766 l 309 525 l 66 525 l 66 736 l 205 989 l 330 989 l 222 766 l 309 766 z "},"”":{"ha":742,"x_min":41,"x_max":656,"o":"m 414 747 l 414 989 l 656 989 l 656 778 l 517 525 l 392 525 l 500 747 l 414 747 m 66 747 l 66 989 l 309 989 l 309 778 l 170 525 l 41 525 l 153 747 l 66 747 z "},"–":{"ha":697,"x_min":0,"x_max":694,"o":"m 0 269 l 0 453 l 694 453 l 694 269 l 0 269 z "},"—":{"ha":1392,"x_min":0,"x_max":1389,"o":"m 0 269 l 0 453 l 1389 453 l 1389 269 l 0 269 z "},"™":{"ha":1192,"x_min":92,"x_max":1100,"o":"m 92 875 l 92 989 l 503 989 l 503 875 l 370 875 l 370 403 l 222 403 l 222 875 l 92 875 m 550 403 l 550 989 l 758 989 l 822 661 l 897 989 l 1100 989 l 1100 403 l 953 403 l 953 836 l 850 403 l 761 403 l 667 850 l 664 403 l 550 403 z "},"´":{"ha":481,"x_min":53,"x_max":395,"o":"m 395 972 l 192 772 l 53 772 l 183 972 l 395 972 z "},"¶":{"ha":742,"x_min":8,"x_max":703,"o":"m 269 -144 l 269 505 q 80 569 153 505 q 8 742 8 632 q 104 940 8 879 q 325 989 180 989 l 703 989 l 703 -144 l 536 -144 l 536 864 l 436 864 l 436 -144 l 269 -144 z "},"©":{"ha":1114,"x_min":41,"x_max":1069,"o":"m 669 428 l 786 428 q 712 288 772 338 q 567 239 652 239 q 391 313 460 239 q 322 497 322 387 q 388 683 322 611 q 567 755 454 755 q 705 707 647 755 q 778 570 764 659 l 667 570 q 633 628 661 610 q 567 647 606 647 q 485 607 514 647 q 456 500 456 567 q 484 390 456 432 q 567 347 511 347 q 637 367 610 347 q 669 428 665 387 m 41 494 q 192 858 41 707 q 555 1008 343 1008 q 919 858 768 1008 q 1069 494 1069 707 q 919 131 1069 282 q 555 -20 768 -20 q 192 131 343 -20 q 41 494 41 282 m 192 494 q 293 221 192 328 q 555 114 395 114 q 818 221 717 114 q 920 494 920 328 q 820 769 920 664 q 555 875 720 875 q 293 769 395 875 q 192 494 192 664 z "},"£":{"ha":742,"x_min":11,"x_max":736,"o":"m 17 475 l 17 550 l 117 550 q 93 632 103 590 q 83 714 83 673 q 176 937 83 860 q 397 1008 261 1008 q 601 956 533 1008 q 717 766 669 903 l 517 708 q 488 793 498 775 q 400 842 458 842 q 342 817 367 842 q 317 758 317 791 q 347 621 317 703 q 375 550 361 585 l 567 550 l 567 475 l 392 475 l 392 419 q 355 301 392 355 q 267 211 325 256 l 269 208 l 309 208 q 433 191 347 208 q 500 180 481 180 q 600 197 553 180 q 659 225 623 205 l 736 33 q 645 -4 708 12 q 511 -20 582 -20 q 405 -12 450 -20 q 283 17 359 -4 q 203 25 245 25 q 61 -17 123 25 l 11 136 q 132 193 109 176 q 192 306 192 236 q 177 389 192 338 q 144 475 161 440 l 17 475 z "},"¥":{"ha":742,"x_min":22,"x_max":722,"o":"m 253 0 l 253 228 l 69 228 l 69 336 l 253 336 l 253 400 l 231 453 l 69 453 l 69 561 l 189 561 l 22 989 l 267 989 l 378 595 l 517 989 l 722 989 l 539 561 l 650 561 l 650 453 l 492 453 l 469 400 l 469 336 l 650 336 l 650 228 l 469 228 l 469 0 l 253 0 z "},"®":{"ha":1114,"x_min":41,"x_max":1069,"o":"m 481 450 l 481 250 l 372 250 l 372 745 l 570 745 q 711 712 664 745 q 758 597 758 679 q 722 489 758 525 q 642 456 693 461 l 766 250 l 647 250 l 536 450 l 481 450 m 481 653 l 481 542 l 575 542 q 626 553 610 542 q 642 597 642 564 q 626 642 642 631 q 575 653 611 653 l 481 653 m 41 494 q 192 858 41 707 q 555 1008 343 1008 q 919 858 768 1008 q 1069 494 1069 707 q 919 131 1069 282 q 555 -20 768 -20 q 192 131 343 -20 q 41 494 41 282 m 192 494 q 293 221 192 328 q 555 114 395 114 q 818 221 717 114 q 920 494 920 328 q 820 769 920 664 q 555 875 720 875 q 293 769 395 875 q 192 494 192 664 z "},"À":{"ha":775,"x_min":-14,"x_max":758,"o":"m -14 0 l 220 989 l 547 989 l 758 0 l 505 0 l 467 200 l 239 200 l 195 0 l -14 0 m 272 375 l 433 375 l 361 778 l 272 375 m 166 1279 l 377 1279 l 507 1079 l 369 1079 l 166 1279 z "},"Á":{"ha":775,"x_min":-14,"x_max":758,"o":"m -14 0 l 220 989 l 547 989 l 758 0 l 505 0 l 467 200 l 239 200 l 195 0 l -14 0 m 272 375 l 433 375 l 361 778 l 272 375 m 604 1280 l 401 1080 l 263 1080 l 393 1280 l 604 1280 z "},"Â":{"ha":775,"x_min":-14,"x_max":758,"o":"m -14 0 l 220 989 l 547 989 l 758 0 l 505 0 l 467 200 l 239 200 l 195 0 l -14 0 m 272 375 l 433 375 l 361 778 l 272 375 m 294 1280 l 469 1280 l 627 1080 l 469 1080 l 380 1192 l 294 1080 l 136 1080 l 294 1280 z "},"Ã":{"ha":775,"x_min":-14,"x_max":758,"o":"m -14 0 l 220 989 l 547 989 l 758 0 l 505 0 l 467 200 l 239 200 l 195 0 l -14 0 m 272 375 l 433 375 l 361 778 l 272 375 m 204 1089 l 113 1089 q 162 1204 125 1158 q 273 1258 207 1258 q 354 1242 308 1258 q 463 1206 454 1206 q 529 1264 521 1206 l 621 1264 q 581 1141 608 1182 q 476 1089 545 1089 q 362 1115 437 1089 q 262 1141 288 1141 q 225 1124 243 1141 q 204 1089 207 1107 z "},"È":{"ha":775,"x_min":64,"x_max":686,"o":"m 64 0 l 64 989 l 686 989 l 686 798 l 314 798 l 314 597 l 564 597 l 564 406 l 314 406 l 314 200 l 686 200 l 686 0 l 64 0 m 156 1280 l 367 1280 l 497 1080 l 359 1080 l 156 1280 z "},"É":{"ha":775,"x_min":64,"x_max":686,"o":"m 64 0 l 64 989 l 686 989 l 686 798 l 314 798 l 314 597 l 564 597 l 564 406 l 314 406 l 314 200 l 686 200 l 686 0 l 64 0 m 604 1280 l 401 1080 l 263 1080 l 393 1280 l 604 1280 z "},"Ê":{"ha":775,"x_min":64,"x_max":686,"o":"m 64 0 l 64 989 l 686 989 l 686 798 l 314 798 l 314 597 l 564 597 l 564 406 l 314 406 l 314 200 l 686 200 l 686 0 l 64 0 m 290 1280 l 465 1280 l 623 1080 l 465 1080 l 376 1192 l 290 1080 l 132 1080 l 290 1280 z "},"Ì":{"ha":389,"x_min":-58,"x_max":319,"o":"m 69 0 l 69 989 l 319 989 l 319 0 l 69 0 m -58 1280 l 153 1280 l 283 1080 l 144 1080 l -58 1280 z "},"Í":{"ha":389,"x_min":69,"x_max":447,"o":"m 69 0 l 69 989 l 319 989 l 319 0 l 69 0 m 447 1280 l 244 1080 l 106 1080 l 236 1280 l 447 1280 z "},"Ò":{"ha":806,"x_min":14,"x_max":783,"o":"m 14 494 q 96 846 14 713 q 400 1008 196 1008 q 701 847 603 1008 q 783 494 783 713 q 703 143 783 275 q 400 -20 604 -20 q 97 142 197 -20 q 14 494 14 277 m 283 494 q 297 257 283 313 q 400 164 321 164 q 500 256 478 164 q 514 494 514 313 q 500 732 514 675 q 400 825 478 825 q 298 733 322 825 q 283 494 283 672 m 146 1280 l 357 1280 l 487 1080 l 349 1080 l 146 1280 z "},"Ó":{"ha":806,"x_min":14,"x_max":783,"o":"m 14 494 q 96 846 14 713 q 400 1008 196 1008 q 701 847 603 1008 q 783 494 783 713 q 703 143 783 275 q 400 -20 604 -20 q 97 142 197 -20 q 14 494 14 277 m 283 494 q 297 257 283 313 q 400 164 321 164 q 500 256 478 164 q 514 494 514 313 q 500 732 514 675 q 400 825 478 825 q 298 733 322 825 q 283 494 283 672 m 656 1280 l 454 1080 l 315 1080 l 446 1280 l 656 1280 z "},"Ô":{"ha":806,"x_min":14,"x_max":783,"o":"m 14 494 q 96 846 14 713 q 400 1008 196 1008 q 701 847 603 1008 q 783 494 783 713 q 703 143 783 275 q 400 -20 604 -20 q 97 142 197 -20 q 14 494 14 277 m 283 494 q 297 257 283 313 q 400 164 321 164 q 500 256 478 164 q 514 494 514 313 q 500 732 514 675 q 400 825 478 825 q 298 733 322 825 q 283 494 283 672 m 315 1280 l 490 1280 l 649 1080 l 490 1080 l 401 1192 l 315 1080 l 157 1080 l 315 1280 z "},"Õ":{"ha":806,"x_min":14,"x_max":783,"o":"m 14 494 q 96 846 14 713 q 400 1008 196 1008 q 701 847 603 1008 q 783 494 783 713 q 703 143 783 275 q 400 -20 604 -20 q 97 142 197 -20 q 14 494 14 277 m 283 494 q 297 257 283 313 q 400 164 321 164 q 500 256 478 164 q 514 494 514 313 q 500 732 514 675 q 400 825 478 825 q 298 733 322 825 q 283 494 283 672 m 241 1089 l 150 1089 q 199 1204 162 1158 q 311 1258 244 1258 q 391 1242 345 1258 q 500 1206 492 1206 q 566 1264 558 1206 l 658 1264 q 618 1141 646 1182 q 513 1089 582 1089 q 400 1115 475 1089 q 300 1141 325 1141 q 262 1124 280 1141 q 241 1089 244 1107 z "},"Ù":{"ha":806,"x_min":64,"x_max":733,"o":"m 733 989 l 733 314 q 646 64 733 147 q 392 -20 558 -20 q 145 66 227 -20 q 64 314 64 151 l 64 989 l 314 989 l 314 302 q 336 205 314 239 q 422 164 364 164 q 505 211 481 164 q 525 317 525 249 l 525 989 l 733 989 m 180 1279 l 391 1279 l 522 1079 l 383 1079 l 180 1279 z "},"Ú":{"ha":806,"x_min":64,"x_max":733,"o":"m 733 989 l 733 314 q 646 64 733 147 q 392 -20 558 -20 q 145 66 227 -20 q 64 314 64 151 l 64 989 l 314 989 l 314 302 q 336 205 314 239 q 422 164 364 164 q 505 211 481 164 q 525 317 525 249 l 525 989 l 733 989 m 652 1280 l 450 1080 l 311 1080 l 441 1280 l 652 1280 z "},"Ý":{"ha":775,"x_min":-14,"x_max":758,"o":"m 236 0 l 236 386 l -14 989 l 250 989 l 380 600 l 536 989 l 758 989 l 486 400 l 486 0 l 236 0 m 593 1280 l 390 1080 l 252 1080 l 382 1280 l 593 1280 z "},"à":{"ha":661,"x_min":22,"x_max":631,"o":"m 383 444 l 383 492 q 369 549 383 526 q 325 572 355 572 q 272 543 290 572 q 253 481 253 514 l 56 522 q 155 669 74 618 q 334 714 228 714 q 522 667 449 714 q 608 503 608 611 l 608 114 q 614 37 608 58 q 631 0 619 16 l 397 0 l 392 64 q 316 4 358 25 q 222 -17 273 -17 q 76 39 129 -17 q 22 197 22 96 q 146 392 22 325 q 383 444 244 444 m 383 178 l 383 336 q 283 309 310 329 q 248 208 248 281 q 311 134 248 134 q 383 178 343 134 m 128 964 l 339 964 l 469 764 l 331 764 l 128 964 z "},"á":{"ha":661,"x_min":22,"x_max":631,"o":"m 383 444 l 383 492 q 369 549 383 526 q 325 572 355 572 q 272 543 290 572 q 253 481 253 514 l 56 522 q 155 669 74 618 q 334 714 228 714 q 522 667 449 714 q 608 503 608 611 l 608 114 q 614 37 608 58 q 631 0 619 16 l 397 0 l 392 64 q 316 4 358 25 q 222 -17 273 -17 q 76 39 129 -17 q 22 197 22 96 q 146 392 22 325 q 383 444 244 444 m 383 178 l 383 336 q 283 309 310 329 q 248 208 248 281 q 311 134 248 134 q 383 178 343 134 m 577 964 l 374 764 l 236 764 l 366 964 l 577 964 z "},"â":{"ha":661,"x_min":22,"x_max":631,"o":"m 383 444 l 383 492 q 369 549 383 526 q 325 572 355 572 q 272 543 290 572 q 253 481 253 514 l 56 522 q 155 669 74 618 q 334 714 228 714 q 522 667 449 714 q 608 503 608 611 l 608 114 q 614 37 608 58 q 631 0 619 16 l 397 0 l 392 64 q 316 4 358 25 q 222 -17 273 -17 q 76 39 129 -17 q 22 197 22 96 q 146 392 22 325 q 383 444 244 444 m 383 178 l 383 336 q 283 309 310 329 q 248 208 248 281 q 311 134 248 134 q 383 178 343 134 m 257 964 l 429 964 l 587 764 l 432 764 l 343 875 l 254 764 l 98 764 l 257 964 z "},"ã":{"ha":661,"x_min":22,"x_max":631,"o":"m 383 444 l 383 492 q 369 549 383 526 q 325 572 355 572 q 272 543 290 572 q 253 481 253 514 l 56 522 q 155 669 74 618 q 334 714 228 714 q 522 667 449 714 q 608 503 608 611 l 608 114 q 614 37 608 58 q 631 0 619 16 l 397 0 l 392 64 q 316 4 358 25 q 222 -17 273 -17 q 76 39 129 -17 q 22 197 22 96 q 146 392 22 325 q 383 444 244 444 m 383 178 l 383 336 q 283 309 310 329 q 248 208 248 281 q 311 134 248 134 q 383 178 343 134 m 180 814 l 88 814 q 138 929 100 884 q 249 983 182 983 q 330 966 283 983 q 438 930 430 930 q 505 989 496 930 l 596 989 q 556 867 584 907 q 452 814 520 814 q 338 840 413 814 q 238 867 263 867 q 200 849 218 867 q 180 814 182 832 z "},"è":{"ha":650,"x_min":22,"x_max":623,"o":"m 623 300 l 248 300 q 264 195 248 235 q 347 134 289 134 q 419 160 389 134 q 461 231 450 186 l 614 175 q 510 37 586 90 q 334 -17 433 -17 q 97 94 182 -17 q 22 350 22 193 q 98 606 22 507 q 330 714 182 714 q 557 599 481 714 q 623 347 623 500 l 623 300 m 248 433 l 414 433 q 401 526 414 496 q 330 572 382 572 q 268 531 288 572 q 248 433 248 490 m 128 964 l 339 964 l 469 764 l 331 764 l 128 964 z "},"é":{"ha":650,"x_min":22,"x_max":623,"o":"m 623 300 l 248 300 q 264 195 248 235 q 347 134 289 134 q 419 160 389 134 q 461 231 450 186 l 614 175 q 510 37 586 90 q 334 -17 433 -17 q 97 94 182 -17 q 22 350 22 193 q 98 606 22 507 q 330 714 182 714 q 557 599 481 714 q 623 347 623 500 l 623 300 m 248 433 l 414 433 q 401 526 414 496 q 330 572 382 572 q 268 531 288 572 q 248 433 248 490 m 562 964 l 359 764 l 221 764 l 351 964 l 562 964 z "},"ê":{"ha":650,"x_min":22,"x_max":623,"o":"m 623 300 l 248 300 q 264 195 248 235 q 347 134 289 134 q 419 160 389 134 q 461 231 450 186 l 614 175 q 510 37 586 90 q 334 -17 433 -17 q 97 94 182 -17 q 22 350 22 193 q 98 606 22 507 q 330 714 182 714 q 557 599 481 714 q 623 347 623 500 l 623 300 m 248 433 l 414 433 q 401 526 414 496 q 330 572 382 572 q 268 531 288 572 q 248 433 248 490 m 244 964 l 416 964 l 574 764 l 419 764 l 330 875 l 241 764 l 85 764 l 244 964 z "},"ì":{"ha":342,"x_min":-90,"x_max":281,"o":"m 56 0 l 56 697 l 281 697 l 281 0 l 56 0 m -90 964 l 121 964 l 251 764 l 113 764 l -90 964 z "},"í":{"ha":342,"x_min":56,"x_max":433,"o":"m 56 0 l 56 697 l 281 697 l 281 0 l 56 0 m 433 964 l 230 764 l 92 764 l 222 964 l 433 964 z "},"ò":{"ha":681,"x_min":22,"x_max":650,"o":"m 22 353 q 100 611 22 515 q 336 714 183 714 q 571 612 488 714 q 650 353 650 515 q 574 87 650 184 q 336 -17 492 -17 q 98 86 180 -17 q 22 353 22 182 m 256 353 q 274 174 256 224 q 336 125 293 125 q 398 174 379 125 q 416 353 416 224 q 400 525 416 478 q 336 572 385 572 q 272 524 289 572 q 256 353 256 476 m 101 964 l 312 964 l 442 764 l 304 764 l 101 964 z "},"ó":{"ha":681,"x_min":22,"x_max":650,"o":"m 22 353 q 100 611 22 515 q 336 714 183 714 q 571 612 488 714 q 650 353 650 515 q 574 87 650 184 q 336 -17 492 -17 q 98 86 180 -17 q 22 353 22 182 m 256 353 q 274 174 256 224 q 336 125 293 125 q 398 174 379 125 q 416 353 416 224 q 400 525 416 478 q 336 572 385 572 q 272 524 289 572 q 256 353 256 476 m 578 964 l 375 764 l 237 764 l 367 964 l 578 964 z "},"õ":{"ha":681,"x_min":22,"x_max":650,"o":"m 22 353 q 100 611 22 515 q 336 714 183 714 q 571 612 488 714 q 650 353 650 515 q 574 87 650 184 q 336 -17 492 -17 q 98 86 180 -17 q 22 353 22 182 m 256 353 q 274 174 256 224 q 336 125 293 125 q 398 174 379 125 q 416 353 416 224 q 400 525 416 478 q 336 572 385 572 q 272 524 289 572 q 256 353 256 476 m 180 814 l 88 814 q 138 929 100 884 q 249 983 182 983 q 330 966 283 983 q 438 930 430 930 q 505 989 496 930 l 596 989 q 556 867 584 907 q 452 814 520 814 q 338 840 413 814 q 238 867 263 867 q 200 849 218 867 q 180 814 182 832 z "},"ô":{"ha":681,"x_min":22,"x_max":650,"o":"m 22 353 q 100 611 22 515 q 336 714 183 714 q 571 612 488 714 q 650 353 650 515 q 574 87 650 184 q 336 -17 492 -17 q 98 86 180 -17 q 22 353 22 182 m 256 353 q 274 174 256 224 q 336 125 293 125 q 398 174 379 125 q 416 353 416 224 q 400 525 416 478 q 336 572 385 572 q 272 524 289 572 q 256 353 256 476 m 254 964 l 426 964 l 584 764 l 429 764 l 340 875 l 251 764 l 95 764 l 254 964 z "},"ù":{"ha":697,"x_min":61,"x_max":636,"o":"m 636 697 l 636 0 l 411 0 l 411 94 q 321 12 374 40 q 208 -17 269 -17 q 101 25 140 -17 q 61 142 61 68 l 61 697 l 286 697 l 286 205 q 297 158 286 174 q 339 142 309 142 q 397 172 375 142 l 411 189 l 411 697 l 636 697 m 85 964 l 296 964 l 426 764 l 288 764 l 85 964 z "},"ú":{"ha":697,"x_min":61,"x_max":636,"o":"m 636 697 l 636 0 l 411 0 l 411 94 q 321 12 374 40 q 208 -17 269 -17 q 101 25 140 -17 q 61 142 61 68 l 61 697 l 286 697 l 286 205 q 297 158 286 174 q 339 142 309 142 q 397 172 375 142 l 411 189 l 411 697 l 636 697 m 614 964 l 411 764 l 273 764 l 403 964 l 614 964 z "},"ý":{"ha":603,"x_min":-11,"x_max":578,"o":"m -11 697 l 222 697 l 302 294 l 403 697 l 578 697 l 345 -22 q 236 -170 311 -125 q 61 -208 171 -208 q 24 -206 45 -208 q -8 -203 4 -204 l -8 -45 q 21 -48 7 -46 q 53 -50 36 -50 q 143 -33 113 -50 q 180 33 180 -12 q 178 65 180 53 q 170 97 176 77 l -11 697 m 565 964 l 362 764 l 224 764 l 354 964 l 565 964 z "},"Ơ":{"ha":825,"x_min":14,"x_max":867,"o":"m 684 869 q 758 700 733 800 q 783 494 783 599 q 703 143 783 275 q 400 -20 604 -20 q 97 142 197 -20 q 14 494 14 277 q 96 846 14 713 q 400 1008 196 1008 q 533 987 476 1008 q 639 922 590 965 q 692 947 663 926 q 730 981 711 961 q 701 989 715 985 q 675 1006 686 994 q 650 1064 650 1031 q 657 1095 650 1078 q 675 1125 664 1112 q 758 1164 714 1164 q 801 1155 778 1164 q 837 1131 823 1146 q 859 1095 851 1116 q 867 1055 867 1074 q 851 994 867 1025 q 810 939 835 962 q 751 897 785 916 q 684 869 718 878 m 283 494 q 297 257 283 313 q 400 164 321 164 q 500 256 478 164 q 514 494 514 313 q 500 732 514 675 q 400 825 478 825 q 298 733 322 825 q 283 494 283 672 z "},"ư":{"ha":681,"x_min":61,"x_max":803,"o":"m 636 647 l 636 0 l 411 0 l 411 94 q 321 12 374 40 q 208 -17 269 -17 q 101 25 140 -17 q 61 142 61 68 l 61 697 l 286 697 l 286 205 q 297 158 286 174 q 339 142 309 142 q 397 172 375 142 l 411 189 l 411 697 l 575 697 q 589 692 581 692 q 637 712 607 692 q 681 745 668 732 q 655 753 668 749 q 633 766 642 758 q 611 819 611 789 q 633 872 611 850 q 705 905 663 905 q 744 898 724 905 q 778 875 765 890 q 803 814 803 850 q 788 758 803 785 q 750 708 774 730 q 636 647 703 661 z "},"ơ":{"ha":667,"x_min":22,"x_max":733,"o":"m 586 583 q 650 353 650 490 q 574 87 650 184 q 336 -17 492 -17 q 98 86 180 -17 q 22 353 22 182 q 100 611 22 515 q 336 714 183 714 q 456 693 404 714 q 550 631 509 672 q 586 653 567 637 q 611 675 599 663 q 586 684 599 679 q 564 697 572 689 q 542 750 542 720 q 564 803 542 781 q 636 836 593 836 q 675 828 654 836 q 708 806 696 821 q 733 745 733 781 q 719 688 733 715 q 681 639 704 661 q 586 583 642 600 m 256 353 q 274 174 256 224 q 336 125 293 125 q 398 174 379 125 q 416 353 416 224 q 400 525 416 478 q 336 572 385 572 q 272 524 289 572 q 256 353 256 476 z "},"Ư":{"ha":854,"x_min":64,"x_max":895,"o":"m 733 917 l 733 314 q 646 64 733 147 q 392 -20 558 -20 q 145 66 227 -20 q 64 314 64 151 l 64 989 l 314 989 l 314 302 q 336 205 314 239 q 422 164 364 164 q 505 211 481 164 q 525 317 525 249 l 525 989 l 711 989 q 742 1002 732 993 q 758 1022 751 1015 q 729 1031 743 1026 q 703 1047 714 1036 q 677 1105 677 1072 q 685 1137 677 1120 q 703 1166 692 1154 q 786 1206 742 1206 q 828 1197 806 1206 q 865 1172 851 1187 q 887 1136 879 1157 q 895 1097 895 1116 q 879 1036 895 1067 q 836 981 863 1004 q 733 917 794 939 z "},"Ũ":{"ha":806,"x_min":64,"x_max":733,"o":"m 733 989 l 733 314 q 646 64 733 147 q 392 -20 558 -20 q 145 66 227 -20 q 64 314 64 151 l 64 989 l 314 989 l 314 302 q 336 205 314 239 q 422 164 364 164 q 505 211 481 164 q 525 317 525 249 l 525 989 l 733 989 m 256 1089 l 164 1089 q 214 1204 176 1158 q 325 1258 258 1258 q 406 1242 359 1258 q 514 1206 506 1206 q 581 1264 572 1206 l 672 1264 q 632 1141 660 1182 q 528 1089 596 1089 q 414 1115 489 1089 q 314 1141 339 1141 q 276 1124 294 1141 q 256 1089 258 1107 z "},"ũ":{"ha":697,"x_min":61,"x_max":636,"o":"m 636 697 l 636 0 l 411 0 l 411 94 q 321 12 374 40 q 208 -17 269 -17 q 101 25 140 -17 q 61 142 61 68 l 61 697 l 286 697 l 286 205 q 297 158 286 174 q 339 142 309 142 q 397 172 375 142 l 411 189 l 411 697 l 636 697 m 185 814 l 94 814 q 143 929 106 884 q 254 983 188 983 q 335 966 289 983 q 444 930 435 930 q 510 989 502 930 l 602 989 q 562 867 589 907 q 457 814 526 814 q 343 840 418 814 q 243 867 269 867 q 206 849 224 867 q 185 814 188 832 z "},"Ĩ":{"ha":389,"x_min":-60,"x_max":448,"o":"m 69 0 l 69 989 l 319 989 l 319 0 l 69 0 m 31 1089 l -60 1089 q -11 1204 -48 1158 q 100 1258 34 1258 q 181 1242 135 1258 q 290 1206 281 1206 q 356 1264 348 1206 l 448 1264 q 408 1141 435 1182 q 303 1089 372 1089 q 190 1115 264 1089 q 90 1141 115 1141 q 52 1124 70 1141 q 31 1089 34 1107 z "},"ĩ":{"ha":342,"x_min":-84,"x_max":424,"o":"m 56 0 l 56 697 l 281 697 l 281 0 l 56 0 m 7 814 l -84 814 q -35 929 -72 884 q 77 983 10 983 q 157 966 111 983 q 266 930 258 930 q 332 989 324 930 l 424 989 q 384 867 412 907 q 279 814 348 814 q 166 840 241 814 q 66 867 91 867 q 28 849 46 867 q 7 814 10 832 z "},"Đ":{"ha":850,"x_min":3,"x_max":786,"o":"m 64 0 l 64 450 l 3 450 l 3 575 l 64 575 l 64 989 l 336 989 q 675 859 558 989 q 786 511 786 733 q 690 150 786 282 q 367 0 582 0 l 64 0 m 314 814 l 314 575 l 453 575 l 453 450 l 314 450 l 314 175 l 342 175 q 494 297 456 175 q 517 519 517 368 q 489 708 517 642 q 336 814 446 814 l 314 814 z "},"đ":{"ha":650,"x_min":22,"x_max":677,"o":"m 625 770 l 625 0 l 411 0 l 411 69 q 325 8 361 24 q 239 -8 289 -8 q 75 90 134 -8 q 22 322 22 179 q 71 585 22 490 q 253 697 129 697 q 400 636 339 697 l 400 770 l 278 770 l 278 895 l 400 895 l 400 989 l 625 989 l 625 895 l 677 895 l 677 770 l 625 770 m 400 178 l 400 542 q 370 563 389 554 q 328 572 351 572 q 264 505 282 572 q 253 378 253 464 l 256 361 q 258 224 256 254 q 317 125 268 125 q 364 139 342 125 q 400 178 386 153 z "},"Ă":{"ha":775,"x_min":-14,"x_max":758,"o":"m -14 0 l 220 989 l 547 989 l 758 0 l 505 0 l 467 200 l 239 200 l 195 0 l -14 0 m 272 375 l 433 375 l 361 778 l 272 375 m 282 1208 q 320 1163 295 1179 q 380 1147 345 1147 q 438 1164 412 1147 q 477 1208 464 1181 l 588 1208 q 513 1093 574 1139 q 380 1047 453 1047 q 250 1092 306 1047 q 177 1208 193 1137 l 282 1208 z "},"ă":{"ha":661,"x_min":22,"x_max":631,"o":"m 383 444 l 383 492 q 369 549 383 526 q 325 572 355 572 q 272 543 290 572 q 253 481 253 514 l 56 522 q 155 669 74 618 q 334 714 228 714 q 522 667 449 714 q 608 503 608 611 l 608 114 q 614 37 608 58 q 631 0 619 16 l 397 0 l 392 64 q 316 4 358 25 q 222 -17 273 -17 q 76 39 129 -17 q 22 197 22 96 q 146 392 22 325 q 383 444 244 444 m 383 178 l 383 336 q 283 309 310 329 q 248 208 248 281 q 311 134 248 134 q 383 178 343 134 m 261 917 q 299 872 274 888 q 358 856 323 856 q 417 872 391 856 q 456 917 443 889 l 567 917 q 492 801 553 847 q 358 755 432 755 q 229 801 285 755 q 155 917 172 846 l 261 917 z "},"Ạ":{"ha":775,"x_min":-14,"x_max":758,"o":"m -14 0 l 220 989 l 547 989 l 758 0 l 505 0 l 467 200 l 239 200 l 195 0 l -14 0 m 272 375 l 433 375 l 361 778 l 272 375 m 265 -256 l 265 -81 l 440 -81 l 440 -256 l 265 -256 z "},"ạ":{"ha":661,"x_min":22,"x_max":631,"o":"m 383 444 l 383 492 q 369 549 383 526 q 325 572 355 572 q 272 543 290 572 q 253 481 253 514 l 56 522 q 155 669 74 618 q 334 714 228 714 q 522 667 449 714 q 608 503 608 611 l 608 114 q 614 37 608 58 q 631 0 619 16 l 397 0 l 392 64 q 316 4 358 25 q 222 -17 273 -17 q 76 39 129 -17 q 22 197 22 96 q 146 392 22 325 q 383 444 244 444 m 383 178 l 383 336 q 283 309 310 329 q 248 208 248 281 q 311 134 248 134 q 383 178 343 134 m 239 -256 l 239 -81 l 414 -81 l 414 -256 l 239 -256 z "},"Ả":{"ha":775,"x_min":-14,"x_max":758,"o":"m -14 0 l 220 989 l 547 989 l 758 0 l 505 0 l 467 200 l 239 200 l 195 0 l -14 0 m 272 375 l 433 375 l 361 778 l 272 375 m 328 1069 l 328 1110 q 381 1210 328 1164 q 435 1277 435 1255 q 419 1311 435 1297 q 383 1324 404 1324 q 328 1309 350 1324 q 305 1269 305 1294 l 199 1269 q 257 1376 207 1337 q 387 1416 308 1416 q 507 1383 455 1416 q 559 1294 559 1350 q 515 1188 559 1228 q 460 1149 479 1163 q 427 1094 427 1123 l 427 1069 l 328 1069 z "},"ả":{"ha":661,"x_min":22,"x_max":631,"o":"m 383 444 l 383 492 q 369 549 383 526 q 325 572 355 572 q 272 543 290 572 q 253 481 253 514 l 56 522 q 155 669 74 618 q 334 714 228 714 q 522 667 449 714 q 608 503 608 611 l 608 114 q 614 37 608 58 q 631 0 619 16 l 397 0 l 392 64 q 316 4 358 25 q 222 -17 273 -17 q 76 39 129 -17 q 22 197 22 96 q 146 392 22 325 q 383 444 244 444 m 383 178 l 383 336 q 283 309 310 329 q 248 208 248 281 q 311 134 248 134 q 383 178 343 134 m 297 782 l 297 822 q 348 916 297 872 q 399 981 399 960 q 385 1013 399 1000 q 350 1025 371 1025 q 297 1010 317 1025 q 277 972 277 996 l 176 972 q 231 1074 182 1036 q 354 1112 279 1112 q 469 1080 420 1112 q 518 996 518 1048 q 477 896 518 936 q 424 860 450 878 q 393 806 393 835 l 393 782 l 297 782 z "},"ấ":{"ha":661,"x_min":22,"x_max":898,"o":"m 383 444 l 383 492 q 369 549 383 526 q 325 572 355 572 q 272 543 290 572 q 253 481 253 514 l 56 522 q 155 669 74 618 q 334 714 228 714 q 522 667 449 714 q 608 503 608 611 l 608 114 q 614 37 608 58 q 631 0 619 16 l 397 0 l 392 64 q 316 4 358 25 q 222 -17 273 -17 q 76 39 129 -17 q 22 197 22 96 q 146 392 22 325 q 383 444 244 444 m 383 178 l 383 336 q 283 309 310 329 q 248 208 248 281 q 311 134 248 134 q 383 178 343 134 m 257 964 l 429 964 l 587 764 l 432 764 l 343 875 l 254 764 l 98 764 l 257 964 m 898 1095 l 695 895 l 556 895 l 687 1095 l 898 1095 z "},"Ấ":{"ha":775,"x_min":-14,"x_max":936,"o":"m -14 0 l 220 989 l 547 989 l 758 0 l 505 0 l 467 200 l 239 200 l 195 0 l -14 0 m 272 375 l 433 375 l 361 778 l 272 375 m 294 1280 l 469 1280 l 627 1080 l 469 1080 l 380 1192 l 294 1080 l 136 1080 l 294 1280 m 936 1411 l 733 1211 l 594 1211 l 725 1411 l 936 1411 z "},"Ầ":{"ha":775,"x_min":-14,"x_max":758,"o":"m -14 0 l 220 989 l 547 989 l 758 0 l 505 0 l 467 200 l 239 200 l 195 0 l -14 0 m 272 375 l 433 375 l 361 778 l 272 375 m 294 1280 l 469 1280 l 627 1080 l 469 1080 l 380 1192 l 294 1080 l 136 1080 l 294 1280 m 385 1455 l 596 1455 l 727 1255 l 588 1255 l 385 1455 z "},"ầ":{"ha":661,"x_min":22,"x_max":689,"o":"m 383 444 l 383 492 q 369 549 383 526 q 325 572 355 572 q 272 543 290 572 q 253 481 253 514 l 56 522 q 155 669 74 618 q 334 714 228 714 q 522 667 449 714 q 608 503 608 611 l 608 114 q 614 37 608 58 q 631 0 619 16 l 397 0 l 392 64 q 316 4 358 25 q 222 -17 273 -17 q 76 39 129 -17 q 22 197 22 96 q 146 392 22 325 q 383 444 244 444 m 383 178 l 383 336 q 283 309 310 329 q 248 208 248 281 q 311 134 248 134 q 383 178 343 134 m 257 964 l 429 964 l 587 764 l 432 764 l 343 875 l 254 764 l 98 764 l 257 964 m 347 1139 l 558 1139 l 689 939 l 550 939 l 347 1139 z "},"Ẩ":{"ha":775,"x_min":-14,"x_max":824,"o":"m -14 0 l 220 989 l 547 989 l 758 0 l 505 0 l 467 200 l 239 200 l 195 0 l -14 0 m 272 375 l 433 375 l 361 778 l 272 375 m 294 1280 l 469 1280 l 627 1080 l 469 1080 l 380 1192 l 294 1080 l 136 1080 l 294 1280 m 592 1213 l 592 1255 q 646 1354 592 1309 q 699 1421 699 1399 q 684 1455 699 1441 q 648 1469 669 1469 q 592 1454 614 1469 q 570 1413 570 1438 l 465 1413 q 522 1521 471 1481 q 652 1560 573 1560 q 772 1527 720 1560 q 824 1438 824 1494 q 780 1333 824 1373 q 726 1294 744 1308 q 692 1238 692 1267 l 692 1213 l 592 1213 z "},"ẩ":{"ha":661,"x_min":22,"x_max":785,"o":"m 383 444 l 383 492 q 369 549 383 526 q 325 572 355 572 q 272 543 290 572 q 253 481 253 514 l 56 522 q 155 669 74 618 q 334 714 228 714 q 522 667 449 714 q 608 503 608 611 l 608 114 q 614 37 608 58 q 631 0 619 16 l 397 0 l 392 64 q 316 4 358 25 q 222 -17 273 -17 q 76 39 129 -17 q 22 197 22 96 q 146 392 22 325 q 383 444 244 444 m 383 178 l 383 336 q 283 309 310 329 q 248 208 248 281 q 311 134 248 134 q 383 178 343 134 m 257 964 l 429 964 l 587 764 l 432 764 l 343 875 l 254 764 l 98 764 l 257 964 m 553 897 l 553 938 q 607 1037 553 992 q 661 1105 661 1082 q 645 1138 661 1124 q 609 1152 630 1152 q 554 1137 576 1152 q 532 1097 532 1122 l 426 1097 q 484 1204 433 1164 q 613 1244 534 1244 q 733 1211 682 1244 q 785 1122 785 1177 q 741 1016 785 1056 q 687 977 705 991 q 654 922 654 951 l 654 897 l 553 897 z "},"Ẫ":{"ha":775,"x_min":-14,"x_max":758,"o":"m -14 0 l 220 989 l 547 989 l 758 0 l 505 0 l 467 200 l 239 200 l 195 0 l -14 0 m 272 375 l 433 375 l 361 778 l 272 375 m 294 1280 l 469 1280 l 627 1080 l 469 1080 l 380 1192 l 294 1080 l 136 1080 l 294 1280 m 235 1336 l 144 1336 q 194 1451 156 1406 q 304 1506 238 1506 q 385 1489 340 1506 q 494 1453 486 1453 q 560 1511 552 1453 l 652 1511 q 612 1389 640 1429 q 507 1336 576 1336 q 394 1362 469 1336 q 294 1389 319 1389 q 256 1372 274 1389 q 235 1336 238 1354 z "},"ẫ":{"ha":661,"x_min":22,"x_max":631,"o":"m 383 444 l 383 492 q 369 549 383 526 q 325 572 355 572 q 272 543 290 572 q 253 481 253 514 l 56 522 q 155 669 74 618 q 334 714 228 714 q 522 667 449 714 q 608 503 608 611 l 608 114 q 614 37 608 58 q 631 0 619 16 l 397 0 l 392 64 q 316 4 358 25 q 222 -17 273 -17 q 76 39 129 -17 q 22 197 22 96 q 146 392 22 325 q 383 444 244 444 m 383 178 l 383 336 q 283 309 310 329 q 248 208 248 281 q 311 134 248 134 q 383 178 343 134 m 257 964 l 429 964 l 587 764 l 432 764 l 343 875 l 254 764 l 98 764 l 257 964 m 197 1019 l 105 1019 q 155 1135 117 1089 q 266 1189 199 1189 q 347 1172 301 1189 q 455 1136 447 1136 q 522 1194 513 1136 l 613 1194 q 573 1072 601 1112 q 469 1019 537 1019 q 355 1046 430 1019 q 255 1072 280 1072 q 217 1055 235 1072 q 197 1019 199 1038 z "},"Ậ":{"ha":775,"x_min":-14,"x_max":758,"o":"m -14 0 l 220 989 l 547 989 l 758 0 l 505 0 l 467 200 l 239 200 l 195 0 l -14 0 m 272 375 l 433 375 l 361 778 l 272 375 m 294 1280 l 469 1280 l 627 1080 l 469 1080 l 380 1192 l 294 1080 l 136 1080 l 294 1280 m 265 -256 l 265 -81 l 440 -81 l 440 -256 l 265 -256 z "},"ậ":{"ha":661,"x_min":22,"x_max":631,"o":"m 383 444 l 383 492 q 369 549 383 526 q 325 572 355 572 q 272 543 290 572 q 253 481 253 514 l 56 522 q 155 669 74 618 q 334 714 228 714 q 522 667 449 714 q 608 503 608 611 l 608 114 q 614 37 608 58 q 631 0 619 16 l 397 0 l 392 64 q 316 4 358 25 q 222 -17 273 -17 q 76 39 129 -17 q 22 197 22 96 q 146 392 22 325 q 383 444 244 444 m 383 178 l 383 336 q 283 309 310 329 q 248 208 248 281 q 311 134 248 134 q 383 178 343 134 m 257 964 l 429 964 l 587 764 l 432 764 l 343 875 l 254 764 l 98 764 l 257 964 m 239 -256 l 239 -81 l 414 -81 l 414 -256 l 239 -256 z "},"Ắ":{"ha":775,"x_min":-14,"x_max":758,"o":"m -14 0 l 220 989 l 547 989 l 758 0 l 505 0 l 467 200 l 239 200 l 195 0 l -14 0 m 272 375 l 433 375 l 361 778 l 272 375 m 282 1208 q 320 1163 295 1179 q 380 1147 345 1147 q 438 1164 412 1147 q 477 1208 464 1181 l 588 1208 q 513 1093 574 1139 q 380 1047 453 1047 q 250 1092 306 1047 q 177 1208 193 1137 l 282 1208 m 652 1464 l 449 1264 l 310 1264 l 437 1464 l 652 1464 z "},"ắ":{"ha":661,"x_min":22,"x_max":631,"o":"m 383 444 l 383 492 q 369 549 383 526 q 325 572 355 572 q 272 543 290 572 q 253 481 253 514 l 56 522 q 155 669 74 618 q 334 714 228 714 q 522 667 449 714 q 608 503 608 611 l 608 114 q 614 37 608 58 q 631 0 619 16 l 397 0 l 392 64 q 316 4 358 25 q 222 -17 273 -17 q 76 39 129 -17 q 22 197 22 96 q 146 392 22 325 q 383 444 244 444 m 383 178 l 383 336 q 283 309 310 329 q 248 208 248 281 q 311 134 248 134 q 383 178 343 134 m 261 917 q 299 872 274 888 q 358 856 323 856 q 417 872 391 856 q 456 917 443 889 l 567 917 q 492 801 553 847 q 358 755 432 755 q 229 801 285 755 q 155 917 172 846 l 261 917 m 630 1173 l 427 972 l 288 972 l 416 1173 l 630 1173 z "},"Ằ":{"ha":775,"x_min":-14,"x_max":758,"o":"m -14 0 l 220 989 l 547 989 l 758 0 l 505 0 l 467 200 l 239 200 l 195 0 l -14 0 m 272 375 l 433 375 l 361 778 l 272 375 m 282 1208 q 320 1163 295 1179 q 380 1147 345 1147 q 438 1164 412 1147 q 477 1208 464 1181 l 588 1208 q 513 1093 574 1139 q 380 1047 453 1047 q 250 1092 306 1047 q 177 1208 193 1137 l 282 1208 m 109 1464 l 319 1464 l 450 1264 l 311 1264 l 109 1464 z "},"ằ":{"ha":661,"x_min":22,"x_max":631,"o":"m 383 444 l 383 492 q 369 549 383 526 q 325 572 355 572 q 272 543 290 572 q 253 481 253 514 l 56 522 q 155 669 74 618 q 334 714 228 714 q 522 667 449 714 q 608 503 608 611 l 608 114 q 614 37 608 58 q 631 0 619 16 l 397 0 l 392 64 q 316 4 358 25 q 222 -17 273 -17 q 76 39 129 -17 q 22 197 22 96 q 146 392 22 325 q 383 444 244 444 m 383 178 l 383 336 q 283 309 310 329 q 248 208 248 281 q 311 134 248 134 q 383 178 343 134 m 261 917 q 299 872 274 888 q 358 856 323 856 q 417 872 391 856 q 456 917 443 889 l 567 917 q 492 801 553 847 q 358 755 432 755 q 229 801 285 755 q 155 917 172 846 l 261 917 m 87 1173 l 298 1173 l 429 972 l 290 972 l 87 1173 z "},"Ẳ":{"ha":775,"x_min":-14,"x_max":758,"o":"m -14 0 l 220 989 l 547 989 l 758 0 l 505 0 l 467 200 l 239 200 l 195 0 l -14 0 m 272 375 l 433 375 l 361 778 l 272 375 m 282 1208 q 320 1163 295 1179 q 380 1147 345 1147 q 438 1164 412 1147 q 477 1208 464 1181 l 588 1208 q 513 1093 574 1139 q 380 1047 453 1047 q 250 1092 306 1047 q 177 1208 193 1137 l 282 1208 m 337 1215 l 337 1255 q 388 1349 337 1305 q 438 1414 438 1393 q 424 1446 438 1433 q 390 1458 410 1458 q 336 1443 357 1458 q 316 1405 316 1429 l 216 1405 q 270 1508 222 1470 q 394 1546 319 1546 q 509 1514 459 1546 q 558 1429 558 1482 q 516 1329 558 1369 q 463 1293 490 1311 q 433 1239 433 1268 l 433 1215 l 337 1215 z "},"ẳ":{"ha":661,"x_min":22,"x_max":631,"o":"m 383 444 l 383 492 q 369 549 383 526 q 325 572 355 572 q 272 543 290 572 q 253 481 253 514 l 56 522 q 155 669 74 618 q 334 714 228 714 q 522 667 449 714 q 608 503 608 611 l 608 114 q 614 37 608 58 q 631 0 619 16 l 397 0 l 392 64 q 316 4 358 25 q 222 -17 273 -17 q 76 39 129 -17 q 22 197 22 96 q 146 392 22 325 q 383 444 244 444 m 383 178 l 383 336 q 283 309 310 329 q 248 208 248 281 q 311 134 248 134 q 383 178 343 134 m 261 917 q 299 872 274 888 q 358 856 323 856 q 417 872 391 856 q 456 917 443 889 l 567 917 q 492 801 553 847 q 358 755 432 755 q 229 801 285 755 q 155 917 172 846 l 261 917 m 316 924 l 316 964 q 367 1058 316 1014 q 417 1122 417 1101 q 403 1154 417 1141 q 369 1166 389 1166 q 315 1152 336 1166 q 295 1114 295 1137 l 195 1114 q 249 1216 201 1178 q 373 1254 298 1254 q 488 1222 438 1254 q 537 1137 537 1190 q 495 1038 537 1078 q 442 1002 469 1019 q 412 947 412 977 l 412 924 l 316 924 z "},"Ẵ":{"ha":775,"x_min":-14,"x_max":758,"o":"m -14 0 l 220 989 l 547 989 l 758 0 l 505 0 l 467 200 l 239 200 l 195 0 l -14 0 m 272 375 l 433 375 l 361 778 l 272 375 m 282 1208 q 320 1163 295 1179 q 380 1147 345 1147 q 438 1164 412 1147 q 477 1208 464 1181 l 588 1208 q 513 1093 574 1139 q 380 1047 453 1047 q 250 1092 306 1047 q 177 1208 193 1137 l 282 1208 m 241 1265 l 150 1265 q 200 1381 163 1335 q 311 1435 244 1435 q 391 1418 346 1435 q 500 1382 492 1382 q 567 1440 558 1382 l 659 1440 q 618 1318 646 1358 q 514 1265 582 1265 q 400 1292 475 1265 q 300 1318 325 1318 q 262 1301 281 1318 q 241 1265 244 1284 z "},"ẵ":{"ha":661,"x_min":22,"x_max":637,"o":"m 383 444 l 383 492 q 369 549 383 526 q 325 572 355 572 q 272 543 290 572 q 253 481 253 514 l 56 522 q 155 669 74 618 q 334 714 228 714 q 522 667 449 714 q 608 503 608 611 l 608 114 q 614 37 608 58 q 631 0 619 16 l 397 0 l 392 64 q 316 4 358 25 q 222 -17 273 -17 q 76 39 129 -17 q 22 197 22 96 q 146 392 22 325 q 383 444 244 444 m 383 178 l 383 336 q 283 309 310 329 q 248 208 248 281 q 311 134 248 134 q 383 178 343 134 m 261 917 q 299 872 274 888 q 358 856 323 856 q 417 872 391 856 q 456 917 443 889 l 567 917 q 492 801 553 847 q 358 755 432 755 q 229 801 285 755 q 155 917 172 846 l 261 917 m 220 972 l 128 972 q 178 1087 141 1041 q 290 1141 222 1141 q 370 1124 324 1141 q 478 1088 470 1088 q 545 1147 536 1088 l 637 1147 q 596 1025 624 1065 q 492 972 560 972 q 378 998 453 972 q 278 1025 303 1025 q 241 1007 259 1025 q 220 972 222 990 z "},"Ặ":{"ha":775,"x_min":-14,"x_max":758,"o":"m -14 0 l 220 989 l 547 989 l 758 0 l 505 0 l 467 200 l 239 200 l 195 0 l -14 0 m 272 375 l 433 375 l 361 778 l 272 375 m 282 1208 q 320 1163 295 1179 q 380 1147 345 1147 q 438 1164 412 1147 q 477 1208 464 1181 l 588 1208 q 513 1093 574 1139 q 380 1047 453 1047 q 250 1092 306 1047 q 177 1208 193 1137 l 282 1208 m 265 -256 l 265 -81 l 440 -81 l 440 -256 l 265 -256 z "},"ặ":{"ha":661,"x_min":22,"x_max":631,"o":"m 383 444 l 383 492 q 369 549 383 526 q 325 572 355 572 q 272 543 290 572 q 253 481 253 514 l 56 522 q 155 669 74 618 q 334 714 228 714 q 522 667 449 714 q 608 503 608 611 l 608 114 q 614 37 608 58 q 631 0 619 16 l 397 0 l 392 64 q 316 4 358 25 q 222 -17 273 -17 q 76 39 129 -17 q 22 197 22 96 q 146 392 22 325 q 383 444 244 444 m 383 178 l 383 336 q 283 309 310 329 q 248 208 248 281 q 311 134 248 134 q 383 178 343 134 m 261 917 q 299 872 274 888 q 358 856 323 856 q 417 872 391 856 q 456 917 443 889 l 567 917 q 492 801 553 847 q 358 755 432 755 q 229 801 285 755 q 155 917 172 846 l 261 917 m 239 -256 l 239 -81 l 414 -81 l 414 -256 l 239 -256 z "},"Ẹ":{"ha":775,"x_min":64,"x_max":686,"o":"m 64 0 l 64 989 l 686 989 l 686 798 l 314 798 l 314 597 l 564 597 l 564 406 l 314 406 l 314 200 l 686 200 l 686 0 l 64 0 m 265 -256 l 265 -81 l 440 -81 l 440 -256 l 265 -256 z "},"ẹ":{"ha":650,"x_min":22,"x_max":623,"o":"m 623 300 l 248 300 q 264 195 248 235 q 347 134 289 134 q 419 160 389 134 q 461 231 450 186 l 614 175 q 510 37 586 90 q 334 -17 433 -17 q 97 94 182 -17 q 22 350 22 193 q 98 606 22 507 q 330 714 182 714 q 557 599 481 714 q 623 347 623 500 l 623 300 m 248 433 l 414 433 q 401 526 414 496 q 330 572 382 572 q 268 531 288 572 q 248 433 248 490 m 233 -256 l 233 -81 l 408 -81 l 408 -256 l 233 -256 z "},"Ẻ":{"ha":775,"x_min":64,"x_max":686,"o":"m 64 0 l 64 989 l 686 989 l 686 798 l 314 798 l 314 597 l 564 597 l 564 406 l 314 406 l 314 200 l 686 200 l 686 0 l 64 0 m 328 1069 l 328 1110 q 381 1210 328 1164 q 435 1277 435 1255 q 419 1311 435 1297 q 383 1324 404 1324 q 328 1309 350 1324 q 305 1269 305 1294 l 199 1269 q 257 1376 207 1337 q 387 1416 308 1416 q 507 1383 455 1416 q 559 1294 559 1350 q 515 1188 559 1228 q 460 1149 479 1163 q 427 1094 427 1123 l 427 1069 l 328 1069 z "},"ẻ":{"ha":650,"x_min":22,"x_max":623,"o":"m 623 300 l 248 300 q 264 195 248 235 q 347 134 289 134 q 419 160 389 134 q 461 231 450 186 l 614 175 q 510 37 586 90 q 334 -17 433 -17 q 97 94 182 -17 q 22 350 22 193 q 98 606 22 507 q 330 714 182 714 q 557 599 481 714 q 623 347 623 500 l 623 300 m 248 433 l 414 433 q 401 526 414 496 q 330 572 382 572 q 268 531 288 572 q 248 433 248 490 m 282 782 l 282 822 q 333 916 282 872 q 384 981 384 960 q 370 1013 384 1000 q 335 1025 356 1025 q 282 1010 302 1025 q 262 972 262 996 l 161 972 q 216 1074 167 1036 q 339 1112 264 1112 q 454 1080 405 1112 q 503 996 503 1048 q 462 896 503 936 q 409 860 435 878 q 378 806 378 835 l 378 782 l 282 782 z "},"Ẽ":{"ha":775,"x_min":64,"x_max":686,"o":"m 64 0 l 64 989 l 686 989 l 686 798 l 314 798 l 314 597 l 564 597 l 564 406 l 314 406 l 314 200 l 686 200 l 686 0 l 64 0 m 225 1089 l 134 1089 q 183 1204 146 1158 q 294 1258 228 1258 q 375 1242 329 1258 q 484 1206 475 1206 q 550 1264 542 1206 l 642 1264 q 602 1141 629 1182 q 497 1089 566 1089 q 384 1115 458 1089 q 283 1141 309 1141 q 246 1124 264 1141 q 225 1089 228 1107 z "},"ẽ":{"ha":650,"x_min":22,"x_max":623,"o":"m 623 300 l 248 300 q 264 195 248 235 q 347 134 289 134 q 419 160 389 134 q 461 231 450 186 l 614 175 q 510 37 586 90 q 334 -17 433 -17 q 97 94 182 -17 q 22 350 22 193 q 98 606 22 507 q 330 714 182 714 q 557 599 481 714 q 623 347 623 500 l 623 300 m 248 433 l 414 433 q 401 526 414 496 q 330 572 382 572 q 268 531 288 572 q 248 433 248 490 m 180 814 l 88 814 q 138 929 100 884 q 249 983 182 983 q 330 966 283 983 q 438 930 430 930 q 505 989 496 930 l 596 989 q 556 867 584 907 q 452 814 520 814 q 338 840 413 814 q 238 867 263 867 q 200 849 218 867 q 180 814 182 832 z "},"Ế":{"ha":775,"x_min":64,"x_max":932,"o":"m 64 0 l 64 989 l 686 989 l 686 798 l 314 798 l 314 597 l 564 597 l 564 406 l 314 406 l 314 200 l 686 200 l 686 0 l 64 0 m 290 1280 l 465 1280 l 623 1080 l 465 1080 l 376 1192 l 290 1080 l 132 1080 l 290 1280 m 932 1411 l 729 1211 l 590 1211 l 721 1411 l 932 1411 z "},"ế":{"ha":650,"x_min":22,"x_max":885,"o":"m 623 300 l 248 300 q 264 195 248 235 q 347 134 289 134 q 419 160 389 134 q 461 231 450 186 l 614 175 q 510 37 586 90 q 334 -17 433 -17 q 97 94 182 -17 q 22 350 22 193 q 98 606 22 507 q 330 714 182 714 q 557 599 481 714 q 623 347 623 500 l 623 300 m 248 433 l 414 433 q 401 526 414 496 q 330 572 382 572 q 268 531 288 572 q 248 433 248 490 m 244 964 l 416 964 l 574 764 l 419 764 l 330 875 l 241 764 l 85 764 l 244 964 m 885 1095 l 682 895 l 543 895 l 674 1095 l 885 1095 z "},"Ề":{"ha":775,"x_min":64,"x_max":723,"o":"m 64 0 l 64 989 l 686 989 l 686 798 l 314 798 l 314 597 l 564 597 l 564 406 l 314 406 l 314 200 l 686 200 l 686 0 l 64 0 m 290 1280 l 465 1280 l 623 1080 l 465 1080 l 376 1192 l 290 1080 l 132 1080 l 290 1280 m 381 1455 l 592 1455 l 723 1255 l 584 1255 l 381 1455 z "},"ề":{"ha":650,"x_min":22,"x_max":676,"o":"m 623 300 l 248 300 q 264 195 248 235 q 347 134 289 134 q 419 160 389 134 q 461 231 450 186 l 614 175 q 510 37 586 90 q 334 -17 433 -17 q 97 94 182 -17 q 22 350 22 193 q 98 606 22 507 q 330 714 182 714 q 557 599 481 714 q 623 347 623 500 l 623 300 m 248 433 l 414 433 q 401 526 414 496 q 330 572 382 572 q 268 531 288 572 q 248 433 248 490 m 244 964 l 416 964 l 574 764 l 419 764 l 330 875 l 241 764 l 85 764 l 244 964 m 334 1139 l 545 1139 l 676 939 l 537 939 l 334 1139 z "},"Ể":{"ha":775,"x_min":64,"x_max":820,"o":"m 64 0 l 64 989 l 686 989 l 686 798 l 314 798 l 314 597 l 564 597 l 564 406 l 314 406 l 314 200 l 686 200 l 686 0 l 64 0 m 290 1280 l 465 1280 l 623 1080 l 465 1080 l 376 1192 l 290 1080 l 132 1080 l 290 1280 m 588 1213 l 588 1255 q 642 1354 588 1309 q 695 1421 695 1399 q 680 1455 695 1441 q 644 1469 665 1469 q 588 1454 610 1469 q 566 1413 566 1438 l 460 1413 q 518 1521 467 1481 q 648 1560 569 1560 q 768 1527 716 1560 q 820 1438 820 1494 q 776 1333 820 1373 q 722 1294 740 1308 q 688 1238 688 1267 l 688 1213 l 588 1213 z "},"ể":{"ha":650,"x_min":22,"x_max":772,"o":"m 623 300 l 248 300 q 264 195 248 235 q 347 134 289 134 q 419 160 389 134 q 461 231 450 186 l 614 175 q 510 37 586 90 q 334 -17 433 -17 q 97 94 182 -17 q 22 350 22 193 q 98 606 22 507 q 330 714 182 714 q 557 599 481 714 q 623 347 623 500 l 623 300 m 248 433 l 414 433 q 401 526 414 496 q 330 572 382 572 q 268 531 288 572 q 248 433 248 490 m 244 964 l 416 964 l 574 764 l 419 764 l 330 875 l 241 764 l 85 764 l 244 964 m 540 897 l 540 938 q 593 1037 540 992 q 647 1105 647 1082 q 632 1138 647 1124 q 595 1152 616 1152 q 540 1137 562 1152 q 518 1097 518 1122 l 412 1097 q 470 1204 419 1164 q 600 1244 521 1244 q 720 1211 668 1244 q 772 1122 772 1177 q 728 1016 772 1056 q 673 977 692 991 q 640 922 640 951 l 640 897 l 540 897 z "},"Ễ":{"ha":775,"x_min":64,"x_max":686,"o":"m 64 0 l 64 989 l 686 989 l 686 798 l 314 798 l 314 597 l 564 597 l 564 406 l 314 406 l 314 200 l 686 200 l 686 0 l 64 0 m 290 1280 l 465 1280 l 623 1080 l 465 1080 l 376 1192 l 290 1080 l 132 1080 l 290 1280 m 231 1336 l 140 1336 q 190 1451 152 1406 q 300 1506 234 1506 q 381 1489 336 1506 q 490 1453 481 1453 q 556 1511 548 1453 l 648 1511 q 608 1389 635 1429 q 503 1336 572 1336 q 390 1362 465 1336 q 290 1389 315 1389 q 252 1372 270 1389 q 231 1336 234 1354 z "},"ễ":{"ha":650,"x_min":22,"x_max":623,"o":"m 623 300 l 248 300 q 264 195 248 235 q 347 134 289 134 q 419 160 389 134 q 461 231 450 186 l 614 175 q 510 37 586 90 q 334 -17 433 -17 q 97 94 182 -17 q 22 350 22 193 q 98 606 22 507 q 330 714 182 714 q 557 599 481 714 q 623 347 623 500 l 623 300 m 248 433 l 414 433 q 401 526 414 496 q 330 572 382 572 q 268 531 288 572 q 248 433 248 490 m 244 964 l 416 964 l 574 764 l 419 764 l 330 875 l 241 764 l 85 764 l 244 964 m 184 1019 l 92 1019 q 142 1135 104 1089 q 253 1189 186 1189 q 334 1172 288 1189 q 442 1136 434 1136 q 509 1194 500 1136 l 600 1194 q 560 1072 588 1112 q 456 1019 524 1019 q 342 1046 417 1019 q 242 1072 267 1072 q 204 1055 222 1072 q 184 1019 186 1038 z "},"Ệ":{"ha":775,"x_min":64,"x_max":686,"o":"m 64 0 l 64 989 l 686 989 l 686 798 l 314 798 l 314 597 l 564 597 l 564 406 l 314 406 l 314 200 l 686 200 l 686 0 l 64 0 m 290 1280 l 465 1280 l 623 1080 l 465 1080 l 376 1192 l 290 1080 l 132 1080 l 290 1280 m 265 -256 l 265 -81 l 440 -81 l 440 -256 l 265 -256 z "},"ệ":{"ha":650,"x_min":22,"x_max":623,"o":"m 623 300 l 248 300 q 264 195 248 235 q 347 134 289 134 q 419 160 389 134 q 461 231 450 186 l 614 175 q 510 37 586 90 q 334 -17 433 -17 q 97 94 182 -17 q 22 350 22 193 q 98 606 22 507 q 330 714 182 714 q 557 599 481 714 q 623 347 623 500 l 623 300 m 248 433 l 414 433 q 401 526 414 496 q 330 572 382 572 q 268 531 288 572 q 248 433 248 490 m 244 964 l 416 964 l 574 764 l 419 764 l 330 875 l 241 764 l 85 764 l 244 964 m 233 -256 l 233 -81 l 408 -81 l 408 -256 l 233 -256 z "},"ỉ":{"ha":342,"x_min":3,"x_max":345,"o":"m 56 0 l 56 697 l 281 697 l 281 0 l 56 0 m 123 782 l 123 822 q 174 916 123 872 q 225 981 225 960 q 211 1013 225 1000 q 176 1025 197 1025 q 123 1010 143 1025 q 103 972 103 996 l 3 972 q 57 1074 8 1036 q 180 1112 106 1112 q 295 1080 246 1112 q 345 996 345 1048 q 303 896 345 936 q 250 860 277 878 q 220 806 220 835 l 220 782 l 123 782 z "},"Ỉ":{"ha":389,"x_min":23,"x_max":383,"o":"m 69 0 l 69 989 l 319 989 l 319 0 l 69 0 m 151 1069 l 151 1110 q 205 1210 151 1164 q 258 1277 258 1255 q 243 1311 258 1297 q 207 1324 228 1324 q 151 1309 174 1324 q 129 1269 129 1294 l 23 1269 q 81 1376 31 1337 q 211 1416 132 1416 q 331 1383 279 1416 q 383 1294 383 1350 q 338 1188 383 1228 q 284 1149 302 1163 q 251 1094 251 1123 l 251 1069 l 151 1069 z "},"Ị":{"ha":389,"x_min":69,"x_max":319,"o":"m 69 0 l 69 989 l 319 989 l 319 0 l 69 0 m 106 -256 l 106 -81 l 281 -81 l 281 -256 l 106 -256 z "},"ị":{"ha":342,"x_min":56,"x_max":281,"o":"m 56 0 l 56 697 l 281 697 l 281 0 l 56 0 m 56 789 l 56 989 l 281 989 l 281 789 l 56 789 m 78 -256 l 78 -81 l 253 -81 l 253 -256 l 78 -256 z "},"Ọ":{"ha":806,"x_min":14,"x_max":783,"o":"m 14 494 q 96 846 14 713 q 400 1008 196 1008 q 701 847 603 1008 q 783 494 783 713 q 703 143 783 275 q 400 -20 604 -20 q 97 142 197 -20 q 14 494 14 277 m 283 494 q 297 257 283 313 q 400 164 321 164 q 500 256 478 164 q 514 494 514 313 q 500 732 514 675 q 400 825 478 825 q 298 733 322 825 q 283 494 283 672 m 308 -256 l 308 -81 l 483 -81 l 483 -256 l 308 -256 z "},"ọ":{"ha":681,"x_min":22,"x_max":650,"o":"m 22 353 q 100 611 22 515 q 336 714 183 714 q 571 612 488 714 q 650 353 650 515 q 574 87 650 184 q 336 -17 492 -17 q 98 86 180 -17 q 22 353 22 182 m 256 353 q 274 174 256 224 q 336 125 293 125 q 398 174 379 125 q 416 353 416 224 q 400 525 416 478 q 336 572 385 572 q 272 524 289 572 q 256 353 256 476 m 246 -256 l 246 -81 l 421 -81 l 421 -256 l 246 -256 z "},"Ỏ":{"ha":806,"x_min":14,"x_max":783,"o":"m 14 494 q 96 846 14 713 q 400 1008 196 1008 q 701 847 603 1008 q 783 494 783 713 q 703 143 783 275 q 400 -20 604 -20 q 97 142 197 -20 q 14 494 14 277 m 283 494 q 297 257 283 313 q 400 164 321 164 q 500 256 478 164 q 514 494 514 313 q 500 732 514 675 q 400 825 478 825 q 298 733 322 825 q 283 494 283 672 m 350 1069 l 350 1110 q 404 1210 350 1164 q 457 1277 457 1255 q 442 1311 457 1297 q 406 1324 427 1324 q 350 1309 372 1324 q 328 1269 328 1294 l 222 1269 q 280 1376 229 1337 q 410 1416 330 1416 q 530 1383 477 1416 q 582 1294 582 1350 q 537 1188 582 1228 q 483 1149 501 1163 q 450 1094 450 1123 l 450 1069 l 350 1069 z "},"ỏ":{"ha":681,"x_min":22,"x_max":650,"o":"m 22 353 q 100 611 22 515 q 336 714 183 714 q 571 612 488 714 q 650 353 650 515 q 574 87 650 184 q 336 -17 492 -17 q 98 86 180 -17 q 22 353 22 182 m 256 353 q 274 174 256 224 q 336 125 293 125 q 398 174 379 125 q 416 353 416 224 q 400 525 416 478 q 336 572 385 572 q 272 524 289 572 q 256 353 256 476 m 289 782 l 289 822 q 340 916 289 872 q 391 981 391 960 q 377 1013 391 1000 q 342 1025 363 1025 q 289 1010 309 1025 q 269 972 269 996 l 168 972 q 222 1074 174 1036 q 346 1112 271 1112 q 461 1080 412 1112 q 510 996 510 1048 q 469 896 510 936 q 416 860 442 878 q 385 806 385 835 l 385 782 l 289 782 z "},"ố":{"ha":681,"x_min":22,"x_max":895,"o":"m 22 353 q 100 611 22 515 q 336 714 183 714 q 571 612 488 714 q 650 353 650 515 q 574 87 650 184 q 336 -17 492 -17 q 98 86 180 -17 q 22 353 22 182 m 256 353 q 274 174 256 224 q 336 125 293 125 q 398 174 379 125 q 416 353 416 224 q 400 525 416 478 q 336 572 385 572 q 272 524 289 572 q 256 353 256 476 m 254 964 l 426 964 l 584 764 l 429 764 l 340 875 l 251 764 l 95 764 l 254 964 m 895 1095 l 692 895 l 553 895 l 684 1095 l 895 1095 z "},"Ố":{"ha":806,"x_min":14,"x_max":957,"o":"m 14 494 q 96 846 14 713 q 400 1008 196 1008 q 701 847 603 1008 q 783 494 783 713 q 703 143 783 275 q 400 -20 604 -20 q 97 142 197 -20 q 14 494 14 277 m 283 494 q 297 257 283 313 q 400 164 321 164 q 500 256 478 164 q 514 494 514 313 q 500 732 514 675 q 400 825 478 825 q 298 733 322 825 q 283 494 283 672 m 315 1280 l 490 1280 l 649 1080 l 490 1080 l 401 1192 l 315 1080 l 157 1080 l 315 1280 m 957 1411 l 754 1211 l 615 1211 l 746 1411 l 957 1411 z "},"Ồ":{"ha":806,"x_min":14,"x_max":783,"o":"m 14 494 q 96 846 14 713 q 400 1008 196 1008 q 701 847 603 1008 q 783 494 783 713 q 703 143 783 275 q 400 -20 604 -20 q 97 142 197 -20 q 14 494 14 277 m 283 494 q 297 257 283 313 q 400 164 321 164 q 500 256 478 164 q 514 494 514 313 q 500 732 514 675 q 400 825 478 825 q 298 733 322 825 q 283 494 283 672 m 315 1280 l 490 1280 l 649 1080 l 490 1080 l 401 1192 l 315 1080 l 157 1080 l 315 1280 m 407 1455 l 618 1455 l 749 1255 l 610 1255 l 407 1455 z "},"ồ":{"ha":681,"x_min":22,"x_max":686,"o":"m 22 353 q 100 611 22 515 q 336 714 183 714 q 571 612 488 714 q 650 353 650 515 q 574 87 650 184 q 336 -17 492 -17 q 98 86 180 -17 q 22 353 22 182 m 256 353 q 274 174 256 224 q 336 125 293 125 q 398 174 379 125 q 416 353 416 224 q 400 525 416 478 q 336 572 385 572 q 272 524 289 572 q 256 353 256 476 m 254 964 l 426 964 l 584 764 l 429 764 l 340 875 l 251 764 l 95 764 l 254 964 m 344 1139 l 555 1139 l 686 939 l 547 939 l 344 1139 z "},"Ổ":{"ha":806,"x_min":14,"x_max":845,"o":"m 14 494 q 96 846 14 713 q 400 1008 196 1008 q 701 847 603 1008 q 783 494 783 713 q 703 143 783 275 q 400 -20 604 -20 q 97 142 197 -20 q 14 494 14 277 m 283 494 q 297 257 283 313 q 400 164 321 164 q 500 256 478 164 q 514 494 514 313 q 500 732 514 675 q 400 825 478 825 q 298 733 322 825 q 283 494 283 672 m 315 1280 l 490 1280 l 649 1080 l 490 1080 l 401 1192 l 315 1080 l 157 1080 l 315 1280 m 613 1213 l 613 1255 q 667 1354 613 1309 q 720 1421 720 1399 q 705 1455 720 1441 q 669 1469 690 1469 q 613 1454 635 1469 q 591 1413 591 1438 l 486 1413 q 543 1521 492 1481 q 673 1560 594 1560 q 793 1527 741 1560 q 845 1438 845 1494 q 801 1333 845 1373 q 747 1294 765 1308 q 713 1238 713 1267 l 713 1213 l 613 1213 z "},"ổ":{"ha":681,"x_min":22,"x_max":782,"o":"m 22 353 q 100 611 22 515 q 336 714 183 714 q 571 612 488 714 q 650 353 650 515 q 574 87 650 184 q 336 -17 492 -17 q 98 86 180 -17 q 22 353 22 182 m 256 353 q 274 174 256 224 q 336 125 293 125 q 398 174 379 125 q 416 353 416 224 q 400 525 416 478 q 336 572 385 572 q 272 524 289 572 q 256 353 256 476 m 254 964 l 426 964 l 584 764 l 429 764 l 340 875 l 251 764 l 95 764 l 254 964 m 550 897 l 550 938 q 604 1037 550 992 q 657 1105 657 1082 q 642 1138 657 1124 q 606 1152 627 1152 q 550 1137 572 1152 q 528 1097 528 1122 l 422 1097 q 480 1204 429 1164 q 610 1244 531 1244 q 730 1211 678 1244 q 782 1122 782 1177 q 738 1016 782 1056 q 684 977 702 991 q 650 922 650 951 l 650 897 l 550 897 z "},"Ỗ":{"ha":806,"x_min":14,"x_max":783,"o":"m 14 494 q 96 846 14 713 q 400 1008 196 1008 q 701 847 603 1008 q 783 494 783 713 q 703 143 783 275 q 400 -20 604 -20 q 97 142 197 -20 q 14 494 14 277 m 283 494 q 297 257 283 313 q 400 164 321 164 q 500 256 478 164 q 514 494 514 313 q 500 732 514 675 q 400 825 478 825 q 298 733 322 825 q 283 494 283 672 m 315 1280 l 490 1280 l 649 1080 l 490 1080 l 401 1192 l 315 1080 l 157 1080 l 315 1280 m 257 1336 l 165 1336 q 216 1451 178 1406 q 326 1506 260 1506 q 407 1489 361 1506 q 515 1453 507 1453 q 582 1511 574 1453 l 673 1511 q 633 1389 661 1429 q 529 1336 597 1336 q 415 1362 490 1336 q 315 1389 340 1389 q 278 1372 296 1389 q 257 1336 260 1354 z "},"ỗ":{"ha":681,"x_min":22,"x_max":650,"o":"m 22 353 q 100 611 22 515 q 336 714 183 714 q 571 612 488 714 q 650 353 650 515 q 574 87 650 184 q 336 -17 492 -17 q 98 86 180 -17 q 22 353 22 182 m 256 353 q 274 174 256 224 q 336 125 293 125 q 398 174 379 125 q 416 353 416 224 q 400 525 416 478 q 336 572 385 572 q 272 524 289 572 q 256 353 256 476 m 254 964 l 426 964 l 584 764 l 429 764 l 340 875 l 251 764 l 95 764 l 254 964 m 193 1019 l 102 1019 q 152 1135 114 1089 q 262 1189 196 1189 q 343 1172 298 1189 q 452 1136 444 1136 q 518 1194 510 1136 l 610 1194 q 570 1072 597 1112 q 465 1019 534 1019 q 352 1046 427 1019 q 252 1072 277 1072 q 214 1055 232 1072 q 193 1019 196 1038 z "},"Ộ":{"ha":806,"x_min":14,"x_max":783,"o":"m 14 494 q 96 846 14 713 q 400 1008 196 1008 q 701 847 603 1008 q 783 494 783 713 q 703 143 783 275 q 400 -20 604 -20 q 97 142 197 -20 q 14 494 14 277 m 283 494 q 297 257 283 313 q 400 164 321 164 q 500 256 478 164 q 514 494 514 313 q 500 732 514 675 q 400 825 478 825 q 298 733 322 825 q 283 494 283 672 m 315 1280 l 490 1280 l 649 1080 l 490 1080 l 401 1192 l 315 1080 l 157 1080 l 315 1280 m 308 -256 l 308 -81 l 483 -81 l 483 -256 l 308 -256 z "},"ộ":{"ha":681,"x_min":22,"x_max":650,"o":"m 22 353 q 100 611 22 515 q 336 714 183 714 q 571 612 488 714 q 650 353 650 515 q 574 87 650 184 q 336 -17 492 -17 q 98 86 180 -17 q 22 353 22 182 m 256 353 q 274 174 256 224 q 336 125 293 125 q 398 174 379 125 q 416 353 416 224 q 400 525 416 478 q 336 572 385 572 q 272 524 289 572 q 256 353 256 476 m 254 964 l 426 964 l 584 764 l 429 764 l 340 875 l 251 764 l 95 764 l 254 964 m 246 -256 l 246 -81 l 421 -81 l 421 -256 l 246 -256 z "},"Ớ":{"ha":825,"x_min":14,"x_max":867,"o":"m 684 869 q 758 700 733 800 q 783 494 783 599 q 703 143 783 275 q 400 -20 604 -20 q 97 142 197 -20 q 14 494 14 277 q 96 846 14 713 q 400 1008 196 1008 q 533 987 476 1008 q 639 922 590 965 q 692 947 663 926 q 730 981 711 961 q 701 989 715 985 q 675 1006 686 994 q 650 1064 650 1031 q 657 1095 650 1078 q 675 1125 664 1112 q 758 1164 714 1164 q 801 1155 778 1164 q 837 1131 823 1146 q 859 1095 851 1116 q 867 1055 867 1074 q 851 994 867 1025 q 810 939 835 962 q 751 897 785 916 q 684 869 718 878 m 283 494 q 297 257 283 313 q 400 164 321 164 q 500 256 478 164 q 514 494 514 313 q 500 732 514 675 q 400 825 478 825 q 298 733 322 825 q 283 494 283 672 m 656 1280 l 454 1080 l 315 1080 l 446 1280 l 656 1280 z "},"ớ":{"ha":667,"x_min":22,"x_max":733,"o":"m 586 583 q 650 353 650 490 q 574 87 650 184 q 336 -17 492 -17 q 98 86 180 -17 q 22 353 22 182 q 100 611 22 515 q 336 714 183 714 q 456 693 404 714 q 550 631 509 672 q 586 653 567 637 q 611 675 599 663 q 586 684 599 679 q 564 697 572 689 q 542 750 542 720 q 564 803 542 781 q 636 836 593 836 q 675 828 654 836 q 708 806 696 821 q 733 745 733 781 q 719 688 733 715 q 681 639 704 661 q 586 583 642 600 m 256 353 q 274 174 256 224 q 336 125 293 125 q 398 174 379 125 q 416 353 416 224 q 400 525 416 478 q 336 572 385 572 q 272 524 289 572 q 256 353 256 476 m 578 964 l 375 764 l 237 764 l 367 964 l 578 964 z "},"Ờ":{"ha":825,"x_min":14,"x_max":867,"o":"m 684 869 q 758 700 733 800 q 783 494 783 599 q 703 143 783 275 q 400 -20 604 -20 q 97 142 197 -20 q 14 494 14 277 q 96 846 14 713 q 400 1008 196 1008 q 533 987 476 1008 q 639 922 590 965 q 692 947 663 926 q 730 981 711 961 q 701 989 715 985 q 675 1006 686 994 q 650 1064 650 1031 q 657 1095 650 1078 q 675 1125 664 1112 q 758 1164 714 1164 q 801 1155 778 1164 q 837 1131 823 1146 q 859 1095 851 1116 q 867 1055 867 1074 q 851 994 867 1025 q 810 939 835 962 q 751 897 785 916 q 684 869 718 878 m 283 494 q 297 257 283 313 q 400 164 321 164 q 500 256 478 164 q 514 494 514 313 q 500 732 514 675 q 400 825 478 825 q 298 733 322 825 q 283 494 283 672 m 146 1280 l 357 1280 l 487 1080 l 349 1080 l 146 1280 z "},"ờ":{"ha":667,"x_min":22,"x_max":733,"o":"m 586 583 q 650 353 650 490 q 574 87 650 184 q 336 -17 492 -17 q 98 86 180 -17 q 22 353 22 182 q 100 611 22 515 q 336 714 183 714 q 456 693 404 714 q 550 631 509 672 q 586 653 567 637 q 611 675 599 663 q 586 684 599 679 q 564 697 572 689 q 542 750 542 720 q 564 803 542 781 q 636 836 593 836 q 675 828 654 836 q 708 806 696 821 q 733 745 733 781 q 719 688 733 715 q 681 639 704 661 q 586 583 642 600 m 256 353 q 274 174 256 224 q 336 125 293 125 q 398 174 379 125 q 416 353 416 224 q 400 525 416 478 q 336 572 385 572 q 272 524 289 572 q 256 353 256 476 m 101 964 l 312 964 l 442 764 l 304 764 l 101 964 z "},"Ở":{"ha":825,"x_min":14,"x_max":867,"o":"m 684 869 q 758 700 733 800 q 783 494 783 599 q 703 143 783 275 q 400 -20 604 -20 q 97 142 197 -20 q 14 494 14 277 q 96 846 14 713 q 400 1008 196 1008 q 533 987 476 1008 q 639 922 590 965 q 692 947 663 926 q 730 981 711 961 q 701 989 715 985 q 675 1006 686 994 q 650 1064 650 1031 q 657 1095 650 1078 q 675 1125 664 1112 q 758 1164 714 1164 q 801 1155 778 1164 q 837 1131 823 1146 q 859 1095 851 1116 q 867 1055 867 1074 q 851 994 867 1025 q 810 939 835 962 q 751 897 785 916 q 684 869 718 878 m 283 494 q 297 257 283 313 q 400 164 321 164 q 500 256 478 164 q 514 494 514 313 q 500 732 514 675 q 400 825 478 825 q 298 733 322 825 q 283 494 283 672 m 350 1069 l 350 1110 q 404 1210 350 1164 q 457 1277 457 1255 q 442 1311 457 1297 q 406 1324 427 1324 q 350 1309 372 1324 q 328 1269 328 1294 l 222 1269 q 280 1376 229 1337 q 410 1416 330 1416 q 530 1383 477 1416 q 582 1294 582 1350 q 537 1188 582 1228 q 483 1149 501 1163 q 450 1094 450 1123 l 450 1069 l 350 1069 z "},"ở":{"ha":667,"x_min":22,"x_max":733,"o":"m 586 583 q 650 353 650 490 q 574 87 650 184 q 336 -17 492 -17 q 98 86 180 -17 q 22 353 22 182 q 100 611 22 515 q 336 714 183 714 q 456 693 404 714 q 550 631 509 672 q 586 653 567 637 q 611 675 599 663 q 586 684 599 679 q 564 697 572 689 q 542 750 542 720 q 564 803 542 781 q 636 836 593 836 q 675 828 654 836 q 708 806 696 821 q 733 745 733 781 q 719 688 733 715 q 681 639 704 661 q 586 583 642 600 m 256 353 q 274 174 256 224 q 336 125 293 125 q 398 174 379 125 q 416 353 416 224 q 400 525 416 478 q 336 572 385 572 q 272 524 289 572 q 256 353 256 476 m 289 782 l 289 822 q 340 916 289 872 q 391 981 391 960 q 377 1013 391 1000 q 342 1025 363 1025 q 289 1010 309 1025 q 269 972 269 996 l 168 972 q 222 1074 174 1036 q 346 1112 271 1112 q 461 1080 412 1112 q 510 996 510 1048 q 469 896 510 936 q 416 860 442 878 q 385 806 385 835 l 385 782 l 289 782 z "},"Ỡ":{"ha":825,"x_min":14,"x_max":867,"o":"m 684 869 q 758 700 733 800 q 783 494 783 599 q 703 143 783 275 q 400 -20 604 -20 q 97 142 197 -20 q 14 494 14 277 q 96 846 14 713 q 400 1008 196 1008 q 533 987 476 1008 q 639 922 590 965 q 692 947 663 926 q 730 981 711 961 q 701 989 715 985 q 675 1006 686 994 q 650 1064 650 1031 q 657 1095 650 1078 q 675 1125 664 1112 q 758 1164 714 1164 q 801 1155 778 1164 q 837 1131 823 1146 q 859 1095 851 1116 q 867 1055 867 1074 q 851 994 867 1025 q 810 939 835 962 q 751 897 785 916 q 684 869 718 878 m 283 494 q 297 257 283 313 q 400 164 321 164 q 500 256 478 164 q 514 494 514 313 q 500 732 514 675 q 400 825 478 825 q 298 733 322 825 q 283 494 283 672 m 241 1089 l 150 1089 q 199 1204 162 1158 q 311 1258 244 1258 q 391 1242 345 1258 q 500 1206 492 1206 q 566 1264 558 1206 l 658 1264 q 618 1141 646 1182 q 513 1089 582 1089 q 400 1115 475 1089 q 300 1141 325 1141 q 262 1124 280 1141 q 241 1089 244 1107 z "},"ỡ":{"ha":667,"x_min":22,"x_max":733,"o":"m 586 583 q 650 353 650 490 q 574 87 650 184 q 336 -17 492 -17 q 98 86 180 -17 q 22 353 22 182 q 100 611 22 515 q 336 714 183 714 q 456 693 404 714 q 550 631 509 672 q 586 653 567 637 q 611 675 599 663 q 586 684 599 679 q 564 697 572 689 q 542 750 542 720 q 564 803 542 781 q 636 836 593 836 q 675 828 654 836 q 708 806 696 821 q 733 745 733 781 q 719 688 733 715 q 681 639 704 661 q 586 583 642 600 m 256 353 q 274 174 256 224 q 336 125 293 125 q 398 174 379 125 q 416 353 416 224 q 400 525 416 478 q 336 572 385 572 q 272 524 289 572 q 256 353 256 476 m 180 814 l 88 814 q 138 929 100 884 q 249 983 182 983 q 330 966 283 983 q 438 930 430 930 q 505 989 496 930 l 596 989 q 556 867 584 907 q 452 814 520 814 q 338 840 413 814 q 238 867 263 867 q 200 849 218 867 q 180 814 182 832 z "},"Ợ":{"ha":825,"x_min":14,"x_max":867,"o":"m 684 869 q 758 700 733 800 q 783 494 783 599 q 703 143 783 275 q 400 -20 604 -20 q 97 142 197 -20 q 14 494 14 277 q 96 846 14 713 q 400 1008 196 1008 q 533 987 476 1008 q 639 922 590 965 q 692 947 663 926 q 730 981 711 961 q 701 989 715 985 q 675 1006 686 994 q 650 1064 650 1031 q 657 1095 650 1078 q 675 1125 664 1112 q 758 1164 714 1164 q 801 1155 778 1164 q 837 1131 823 1146 q 859 1095 851 1116 q 867 1055 867 1074 q 851 994 867 1025 q 810 939 835 962 q 751 897 785 916 q 684 869 718 878 m 283 494 q 297 257 283 313 q 400 164 321 164 q 500 256 478 164 q 514 494 514 313 q 500 732 514 675 q 400 825 478 825 q 298 733 322 825 q 283 494 283 672 m 308 -256 l 308 -81 l 483 -81 l 483 -256 l 308 -256 z "},"ợ":{"ha":667,"x_min":22,"x_max":733,"o":"m 586 583 q 650 353 650 490 q 574 87 650 184 q 336 -17 492 -17 q 98 86 180 -17 q 22 353 22 182 q 100 611 22 515 q 336 714 183 714 q 456 693 404 714 q 550 631 509 672 q 586 653 567 637 q 611 675 599 663 q 586 684 599 679 q 564 697 572 689 q 542 750 542 720 q 564 803 542 781 q 636 836 593 836 q 675 828 654 836 q 708 806 696 821 q 733 745 733 781 q 719 688 733 715 q 681 639 704 661 q 586 583 642 600 m 256 353 q 274 174 256 224 q 336 125 293 125 q 398 174 379 125 q 416 353 416 224 q 400 525 416 478 q 336 572 385 572 q 272 524 289 572 q 256 353 256 476 m 246 -256 l 246 -81 l 421 -81 l 421 -256 l 246 -256 z "},"ụ":{"ha":697,"x_min":61,"x_max":636,"o":"m 636 697 l 636 0 l 411 0 l 411 94 q 321 12 374 40 q 208 -17 269 -17 q 101 25 140 -17 q 61 142 61 68 l 61 697 l 286 697 l 286 205 q 297 158 286 174 q 339 142 309 142 q 397 172 375 142 l 411 189 l 411 697 l 636 697 m 256 -256 l 256 -81 l 431 -81 l 431 -256 l 256 -256 z "},"Ụ":{"ha":806,"x_min":64,"x_max":733,"o":"m 733 989 l 733 314 q 646 64 733 147 q 392 -20 558 -20 q 145 66 227 -20 q 64 314 64 151 l 64 989 l 314 989 l 314 302 q 336 205 314 239 q 422 164 364 164 q 505 211 481 164 q 525 317 525 249 l 525 989 l 733 989 m 303 -256 l 303 -81 l 478 -81 l 478 -256 l 303 -256 z "},"Ủ":{"ha":806,"x_min":64,"x_max":733,"o":"m 733 989 l 733 314 q 646 64 733 147 q 392 -20 558 -20 q 145 66 227 -20 q 64 314 64 151 l 64 989 l 314 989 l 314 302 q 336 205 314 239 q 422 164 364 164 q 505 211 481 164 q 525 317 525 249 l 525 989 l 733 989 m 372 1069 l 372 1110 q 426 1210 372 1164 q 479 1277 479 1255 q 464 1311 479 1297 q 428 1324 449 1324 q 372 1309 395 1324 q 350 1269 350 1294 l 244 1269 q 302 1376 252 1337 q 432 1416 353 1416 q 552 1383 500 1416 q 604 1294 604 1350 q 559 1188 604 1228 q 505 1149 524 1163 q 472 1094 472 1123 l 472 1069 l 372 1069 z "},"ủ":{"ha":697,"x_min":61,"x_max":636,"o":"m 636 697 l 636 0 l 411 0 l 411 94 q 321 12 374 40 q 208 -17 269 -17 q 101 25 140 -17 q 61 142 61 68 l 61 697 l 286 697 l 286 205 q 297 158 286 174 q 339 142 309 142 q 397 172 375 142 l 411 189 l 411 697 l 636 697 m 299 782 l 299 822 q 350 916 299 872 q 401 981 401 960 q 387 1013 401 1000 q 352 1025 373 1025 q 299 1010 319 1025 q 279 972 279 996 l 178 972 q 233 1074 184 1036 q 356 1112 281 1112 q 471 1080 422 1112 q 520 996 520 1048 q 479 896 520 936 q 426 860 452 878 q 395 806 395 835 l 395 782 l 299 782 z "},"Ứ":{"ha":854,"x_min":64,"x_max":895,"o":"m 733 917 l 733 314 q 646 64 733 147 q 392 -20 558 -20 q 145 66 227 -20 q 64 314 64 151 l 64 989 l 314 989 l 314 302 q 336 205 314 239 q 422 164 364 164 q 505 211 481 164 q 525 317 525 249 l 525 989 l 711 989 q 742 1002 732 993 q 758 1022 751 1015 q 729 1031 743 1026 q 703 1047 714 1036 q 677 1105 677 1072 q 685 1137 677 1120 q 703 1166 692 1154 q 786 1206 742 1206 q 828 1197 806 1206 q 865 1172 851 1187 q 887 1136 879 1157 q 895 1097 895 1116 q 879 1036 895 1067 q 836 981 863 1004 q 733 917 794 939 m 652 1280 l 450 1080 l 311 1080 l 441 1280 l 652 1280 z "},"ứ":{"ha":681,"x_min":61,"x_max":803,"o":"m 636 647 l 636 0 l 411 0 l 411 94 q 321 12 374 40 q 208 -17 269 -17 q 101 25 140 -17 q 61 142 61 68 l 61 697 l 286 697 l 286 205 q 297 158 286 174 q 339 142 309 142 q 397 172 375 142 l 411 189 l 411 697 l 575 697 q 589 692 581 692 q 637 712 607 692 q 681 745 668 732 q 655 753 668 749 q 633 766 642 758 q 611 819 611 789 q 633 872 611 850 q 705 905 663 905 q 744 898 724 905 q 778 875 765 890 q 803 814 803 850 q 788 758 803 785 q 750 708 774 730 q 636 647 703 661 m 614 964 l 411 764 l 273 764 l 403 964 l 614 964 z "},"Ừ":{"ha":854,"x_min":64,"x_max":895,"o":"m 733 917 l 733 314 q 646 64 733 147 q 392 -20 558 -20 q 145 66 227 -20 q 64 314 64 151 l 64 989 l 314 989 l 314 302 q 336 205 314 239 q 422 164 364 164 q 505 211 481 164 q 525 317 525 249 l 525 989 l 711 989 q 742 1002 732 993 q 758 1022 751 1015 q 729 1031 743 1026 q 703 1047 714 1036 q 677 1105 677 1072 q 685 1137 677 1120 q 703 1166 692 1154 q 786 1206 742 1206 q 828 1197 806 1206 q 865 1172 851 1187 q 887 1136 879 1157 q 895 1097 895 1116 q 879 1036 895 1067 q 836 981 863 1004 q 733 917 794 939 m 180 1279 l 391 1279 l 522 1079 l 383 1079 l 180 1279 z "},"ừ":{"ha":681,"x_min":61,"x_max":803,"o":"m 636 647 l 636 0 l 411 0 l 411 94 q 321 12 374 40 q 208 -17 269 -17 q 101 25 140 -17 q 61 142 61 68 l 61 697 l 286 697 l 286 205 q 297 158 286 174 q 339 142 309 142 q 397 172 375 142 l 411 189 l 411 697 l 575 697 q 589 692 581 692 q 637 712 607 692 q 681 745 668 732 q 655 753 668 749 q 633 766 642 758 q 611 819 611 789 q 633 872 611 850 q 705 905 663 905 q 744 898 724 905 q 778 875 765 890 q 803 814 803 850 q 788 758 803 785 q 750 708 774 730 q 636 647 703 661 m 85 964 l 296 964 l 426 764 l 288 764 l 85 964 z "},"Ử":{"ha":854,"x_min":64,"x_max":895,"o":"m 733 917 l 733 314 q 646 64 733 147 q 392 -20 558 -20 q 145 66 227 -20 q 64 314 64 151 l 64 989 l 314 989 l 314 302 q 336 205 314 239 q 422 164 364 164 q 505 211 481 164 q 525 317 525 249 l 525 989 l 711 989 q 742 1002 732 993 q 758 1022 751 1015 q 729 1031 743 1026 q 703 1047 714 1036 q 677 1105 677 1072 q 685 1137 677 1120 q 703 1166 692 1154 q 786 1206 742 1206 q 828 1197 806 1206 q 865 1172 851 1187 q 887 1136 879 1157 q 895 1097 895 1116 q 879 1036 895 1067 q 836 981 863 1004 q 733 917 794 939 m 372 1069 l 372 1110 q 426 1210 372 1164 q 479 1277 479 1255 q 464 1311 479 1297 q 428 1324 449 1324 q 372 1309 395 1324 q 350 1269 350 1294 l 244 1269 q 302 1376 252 1337 q 432 1416 353 1416 q 552 1383 500 1416 q 604 1294 604 1350 q 559 1188 604 1228 q 505 1149 524 1163 q 472 1094 472 1123 l 472 1069 l 372 1069 z "},"ử":{"ha":681,"x_min":61,"x_max":803,"o":"m 636 647 l 636 0 l 411 0 l 411 94 q 321 12 374 40 q 208 -17 269 -17 q 101 25 140 -17 q 61 142 61 68 l 61 697 l 286 697 l 286 205 q 297 158 286 174 q 339 142 309 142 q 397 172 375 142 l 411 189 l 411 697 l 575 697 q 589 692 581 692 q 637 712 607 692 q 681 745 668 732 q 655 753 668 749 q 633 766 642 758 q 611 819 611 789 q 633 872 611 850 q 705 905 663 905 q 744 898 724 905 q 778 875 765 890 q 803 814 803 850 q 788 758 803 785 q 750 708 774 730 q 636 647 703 661 m 299 782 l 299 822 q 350 916 299 872 q 401 981 401 960 q 387 1013 401 1000 q 352 1025 373 1025 q 299 1010 319 1025 q 279 972 279 996 l 178 972 q 233 1074 184 1036 q 356 1112 281 1112 q 471 1080 422 1112 q 520 996 520 1048 q 479 896 520 936 q 426 860 452 878 q 395 806 395 835 l 395 782 l 299 782 z "},"Ữ":{"ha":854,"x_min":64,"x_max":895,"o":"m 733 917 l 733 314 q 646 64 733 147 q 392 -20 558 -20 q 145 66 227 -20 q 64 314 64 151 l 64 989 l 314 989 l 314 302 q 336 205 314 239 q 422 164 364 164 q 505 211 481 164 q 525 317 525 249 l 525 989 l 711 989 q 742 1002 732 993 q 758 1022 751 1015 q 729 1031 743 1026 q 703 1047 714 1036 q 677 1105 677 1072 q 685 1137 677 1120 q 703 1166 692 1154 q 786 1206 742 1206 q 828 1197 806 1206 q 865 1172 851 1187 q 887 1136 879 1157 q 895 1097 895 1116 q 879 1036 895 1067 q 836 981 863 1004 q 733 917 794 939 m 256 1089 l 164 1089 q 214 1204 176 1158 q 325 1258 258 1258 q 406 1242 359 1258 q 514 1206 506 1206 q 581 1264 572 1206 l 672 1264 q 632 1141 660 1182 q 528 1089 596 1089 q 414 1115 489 1089 q 314 1141 339 1141 q 276 1124 294 1141 q 256 1089 258 1107 z "},"ữ":{"ha":681,"x_min":61,"x_max":803,"o":"m 636 647 l 636 0 l 411 0 l 411 94 q 321 12 374 40 q 208 -17 269 -17 q 101 25 140 -17 q 61 142 61 68 l 61 697 l 286 697 l 286 205 q 297 158 286 174 q 339 142 309 142 q 397 172 375 142 l 411 189 l 411 697 l 575 697 q 589 692 581 692 q 637 712 607 692 q 681 745 668 732 q 655 753 668 749 q 633 766 642 758 q 611 819 611 789 q 633 872 611 850 q 705 905 663 905 q 744 898 724 905 q 778 875 765 890 q 803 814 803 850 q 788 758 803 785 q 750 708 774 730 q 636 647 703 661 m 185 814 l 94 814 q 143 929 106 884 q 254 983 188 983 q 335 966 289 983 q 444 930 435 930 q 510 989 502 930 l 602 989 q 562 867 589 907 q 457 814 526 814 q 343 840 418 814 q 243 867 269 867 q 206 849 224 867 q 185 814 188 832 z "},"Ự":{"ha":854,"x_min":64,"x_max":895,"o":"m 733 917 l 733 314 q 646 64 733 147 q 392 -20 558 -20 q 145 66 227 -20 q 64 314 64 151 l 64 989 l 314 989 l 314 302 q 336 205 314 239 q 422 164 364 164 q 505 211 481 164 q 525 317 525 249 l 525 989 l 711 989 q 742 1002 732 993 q 758 1022 751 1015 q 729 1031 743 1026 q 703 1047 714 1036 q 677 1105 677 1072 q 685 1137 677 1120 q 703 1166 692 1154 q 786 1206 742 1206 q 828 1197 806 1206 q 865 1172 851 1187 q 887 1136 879 1157 q 895 1097 895 1116 q 879 1036 895 1067 q 836 981 863 1004 q 733 917 794 939 m 303 -256 l 303 -81 l 478 -81 l 478 -256 l 303 -256 z "},"ự":{"ha":681,"x_min":61,"x_max":803,"o":"m 636 647 l 636 0 l 411 0 l 411 94 q 321 12 374 40 q 208 -17 269 -17 q 101 25 140 -17 q 61 142 61 68 l 61 697 l 286 697 l 286 205 q 297 158 286 174 q 339 142 309 142 q 397 172 375 142 l 411 189 l 411 697 l 575 697 q 589 692 581 692 q 637 712 607 692 q 681 745 668 732 q 655 753 668 749 q 633 766 642 758 q 611 819 611 789 q 633 872 611 850 q 705 905 663 905 q 744 898 724 905 q 778 875 765 890 q 803 814 803 850 q 788 758 803 785 q 750 708 774 730 q 636 647 703 661 m 256 -256 l 256 -81 l 431 -81 l 431 -256 l 256 -256 z "},"ỳ":{"ha":603,"x_min":-11,"x_max":578,"o":"m -11 697 l 222 697 l 302 294 l 403 697 l 578 697 l 345 -22 q 236 -170 311 -125 q 61 -208 171 -208 q 24 -206 45 -208 q -8 -203 4 -204 l -8 -45 q 21 -48 7 -46 q 53 -50 36 -50 q 143 -33 113 -50 q 180 33 180 -12 q 178 65 180 53 q 170 97 176 77 l -11 697 m 43 964 l 254 964 l 385 764 l 246 764 l 43 964 z "},"Ỳ":{"ha":775,"x_min":-14,"x_max":758,"o":"m 236 0 l 236 386 l -14 989 l 250 989 l 380 600 l 536 989 l 758 989 l 486 400 l 486 0 l 236 0 m 145 1280 l 356 1280 l 486 1080 l 348 1080 l 145 1280 z "},"Ỵ":{"ha":775,"x_min":-14,"x_max":758,"o":"m 236 0 l 236 386 l -14 989 l 250 989 l 380 600 l 536 989 l 758 989 l 486 400 l 486 0 l 236 0 m 272 -256 l 272 -81 l 447 -81 l 447 -256 l 272 -256 z "},"ỵ":{"ha":603,"x_min":-11,"x_max":578,"o":"m -11 697 l 222 697 l 302 294 l 403 697 l 578 697 l 345 -22 q 236 -170 311 -125 q 61 -208 171 -208 q 24 -206 45 -208 q -8 -203 4 -204 l -8 -45 q 21 -48 7 -46 q 53 -50 36 -50 q 143 -33 113 -50 q 180 33 180 -12 q 178 65 180 53 q 170 97 176 77 l -11 697 m 395 -256 l 395 -81 l 570 -81 l 570 -256 l 395 -256 z "},"Ỷ":{"ha":775,"x_min":-14,"x_max":758,"o":"m 236 0 l 236 386 l -14 989 l 250 989 l 380 600 l 536 989 l 758 989 l 486 400 l 486 0 l 236 0 m 350 1069 l 350 1110 q 404 1210 350 1164 q 457 1277 457 1255 q 442 1311 457 1297 q 406 1324 427 1324 q 350 1309 372 1324 q 328 1269 328 1294 l 222 1269 q 280 1376 229 1337 q 410 1416 330 1416 q 530 1383 477 1416 q 582 1294 582 1350 q 537 1188 582 1228 q 483 1149 501 1163 q 450 1094 450 1123 l 450 1069 l 350 1069 z "},"ỷ":{"ha":603,"x_min":-11,"x_max":578,"o":"m -11 697 l 222 697 l 302 294 l 403 697 l 578 697 l 345 -22 q 236 -170 311 -125 q 61 -208 171 -208 q 24 -206 45 -208 q -8 -203 4 -204 l -8 -45 q 21 -48 7 -46 q 53 -50 36 -50 q 143 -33 113 -50 q 180 33 180 -12 q 178 65 180 53 q 170 97 176 77 l -11 697 m 252 782 l 252 822 q 302 916 252 872 q 353 981 353 960 q 339 1013 353 1000 q 304 1025 326 1025 q 251 1010 271 1025 q 231 972 231 996 l 131 972 q 185 1074 136 1036 q 309 1112 234 1112 q 424 1080 374 1112 q 473 996 473 1048 q 431 896 473 936 q 378 860 405 878 q 348 806 348 835 l 348 782 l 252 782 z "},"Ỹ":{"ha":775,"x_min":-14,"x_max":758,"o":"m 236 0 l 236 386 l -14 989 l 250 989 l 380 600 l 536 989 l 758 989 l 486 400 l 486 0 l 236 0 m 226 1089 l 134 1089 q 184 1204 146 1158 q 295 1258 229 1258 q 376 1242 330 1258 q 484 1206 476 1206 q 551 1264 543 1206 l 642 1264 q 602 1141 630 1182 q 498 1089 566 1089 q 384 1115 459 1089 q 284 1141 309 1141 q 247 1124 264 1141 q 226 1089 229 1107 z "},"ỹ":{"ha":603,"x_min":-11,"x_max":578,"o":"m -11 697 l 222 697 l 302 294 l 403 697 l 578 697 l 345 -22 q 236 -170 311 -125 q 61 -208 171 -208 q 24 -206 45 -208 q -8 -203 4 -204 l -8 -45 q 21 -48 7 -46 q 53 -50 36 -50 q 143 -33 113 -50 q 180 33 180 -12 q 178 65 180 53 q 170 97 176 77 l -11 697 m 139 814 l 47 814 q 97 929 60 884 q 208 983 142 983 q 289 966 243 983 q 397 930 389 930 q 464 989 456 930 l 555 989 q 515 867 543 907 q 411 814 479 814 q 297 840 372 814 q 197 867 222 867 q 160 849 178 867 q 139 814 142 832 z "},"þ":{"ha":56,"x_min":0,"x_max":0,"o":""},"ÿ":{"ha":56,"x_min":0,"x_max":0,"o":""}}}
